<svg xmlns="http://www.w3.org/2000/svg" viewBox="0 0 64 64"><circle cx="47.65" cy="33.36" r=".84" fill="#595959" fill-opacity=".467"/><circle cx="47.66" cy="33.36" r=".98" fill="#707070" fill-opacity=".467"/><circle cx="47.72" cy="33.38" r="1.12" fill="#878787" fill-opacity=".468"/><circle cx="47.06" cy="36.89" r=".84" fill="#595959" fill-opacity=".468"/><circle cx="47.81" cy="33.4" r=".99" fill="#707070" fill-opacity=".468"/><circle cx="47.16" cy="36.91" r=".99" fill="#707070" fill-opacity=".469"/><circle cx="47.9" cy="33.43" r=".85" fill="#595959" fill-opacity=".469"/><circle cx="47.81" cy="29.78" r="1.13" fill="#878787" fill-opacity=".469"/><circle cx="47.82" cy="29.78" r=".99" fill="#707070" fill-opacity=".469"/><circle cx="47.25" cy="36.93" r="1.13" fill="#878787" fill-opacity=".47"/><circle cx="47.88" cy="29.8" r=".85" fill="#5a5a5a" fill-opacity=".47"/><circle cx="47.89" cy="29.8" r=".99" fill="#717171" fill-opacity=".47"/><circle cx="47.31" cy="36.95" r=".99" fill="#717171" fill-opacity=".471"/><circle cx="47.31" cy="36.95" r=".85" fill="#5a5a5a" fill-opacity=".471"/><circle cx="47.08" cy="26.12" r=".85" fill="#5a5a5a" fill-opacity=".472"/><circle cx="48.09" cy="29.85" r=".85" fill="#5a5a5a" fill-opacity=".472"/><circle cx="47.16" cy="26.14" r=".99" fill="#717171" fill-opacity=".472"/><circle cx="47.35" cy="26.18" r="1.14" fill="#888" fill-opacity=".474"/><circle cx="45.57" cy="22.54" r=".86" fill="#5b5b5b" fill-opacity=".475"/><circle cx="46.36" cy="40.36" r=".86" fill="#5b5b5b" fill-opacity=".476"/><circle cx="47.68" cy="26.26" r="1" fill="#727272" fill-opacity=".477"/><circle cx="45.9" cy="22.6" r="1.01" fill="#727272" fill-opacity=".478"/><circle cx="46.55" cy="40.41" r="1.01" fill="#727272" fill-opacity=".478"/><circle cx="46.56" cy="40.41" r=".86" fill="#5b5b5b" fill-opacity=".478"/><circle cx="46.62" cy="40.43" r="1.01" fill="#727272" fill-opacity=".479"/><circle cx="46.63" cy="40.43" r="1.15" fill="#898989" fill-opacity=".479"/><circle cx="48.14" cy="26.37" r=".87" fill="#5c5c5c" fill-opacity=".481"/><circle cx="46.37" cy="22.69" r="1.16" fill="#8a8a8a" fill-opacity=".482"/><circle cx="43.73" cy="19.25" r=".87" fill="#5c5c5c" fill-opacity=".484"/><circle cx="46.99" cy="22.81" r="1.03" fill="#747474" fill-opacity=".487"/><circle cx="45.23" cy="43.63" r=".88" fill="#5d5d5d" fill-opacity=".487"/><circle cx="44.37" cy="19.32" r="1.03" fill="#747474" fill-opacity=".489"/><circle cx="45.67" cy="43.74" r="1.04" fill="#757575" fill-opacity=".492"/><circle cx="47.75" cy="22.98" r=".89" fill="#5e5e5e" fill-opacity=".494"/><circle cx="45.15" cy="19.43" r="1.19" fill="#8c8c8c" fill-opacity=".495"/><circle cx="45.96" cy="43.81" r="1.19" fill="#8c8c8c" fill-opacity=".496"/><circle cx="46.13" cy="43.85" r="1.05" fill="#767676" fill-opacity=".498"/><circle cx="46.21" cy="43.86" r=".9" fill="#5f5f5f" fill-opacity=".499"/><circle cx="42.15" cy="16.35" r=".9" fill="#5f5f5f" fill-opacity=".501"/><circle cx="46.07" cy="19.58" r="1.06" fill="#777" fill-opacity=".502"/><circle cx="43.91" cy="46.67" r=".91" fill="#606060" fill-opacity=".504"/><circle cx="43.07" cy="16.41" r="1.07" fill="#777" fill-opacity=".507"/><circle cx="47.09" cy="19.79" r=".92" fill="#616161" fill-opacity=".511"/><circle cx="44.6" cy="46.82" r="1.08" fill="#787878" fill-opacity=".512"/><circle cx="44.13" cy="16.52" r="1.24" fill="#909090" fill-opacity=".515"/><circle cx="45.14" cy="46.93" r="1.25" fill="#919191" fill-opacity=".519"/><circle cx="42.2" cy="49.38" r=".95" fill="#636363" fill-opacity=".523"/><circle cx="45.53" cy="47" r="1.11" fill="#7b7b7b" fill-opacity=".524"/><circle cx="45.27" cy="16.69" r="1.11" fill="#7b7b7b" fill-opacity=".525"/><circle cx="41.26" cy="13.83" r=".95" fill="#646464" fill-opacity=".527"/><circle cx="45.8" cy="47.04" r=".95" fill="#646464" fill-opacity=".527"/><circle cx="43.11" cy="49.55" r="1.13" fill="#7c7c7c" fill-opacity=".534"/><circle cx="42.41" cy="13.89" r="1.13" fill="#7d7d7d" fill-opacity=".536"/><circle cx="46.47" cy="16.93" r=".97" fill="#666" fill-opacity=".536"/><circle cx="39.83" cy="51.63" r=".98" fill="#676767" fill-opacity=".54"/><circle cx="43.89" cy="49.67" r="1.31" fill="#959595" fill-opacity=".543"/><circle cx="43.64" cy="14.02" r="1.32" fill="#969696" fill-opacity=".546"/><circle cx="44.51" cy="49.73" r="1.17" fill="#808080" fill-opacity=".552"/><circle cx="40.92" cy="51.84" r="1.17" fill="#808080" fill-opacity=".553"/><circle cx="36.64" cy="53.32" r="1" fill="#696969" fill-opacity=".554"/><circle cx="44.89" cy="14.23" r="1.18" fill="#818181" fill-opacity=".557"/><circle cx="44.99" cy="49.77" r="1.01" fill="#6a6a6a" fill-opacity=".559"/><circle cx="41.91" cy="51.96" r="1.36" fill="#999" fill-opacity=".565"/><circle cx="41.17" cy="11.68" r="1.02" fill="#6b6b6b" fill-opacity=".565"/><circle cx="32.75" cy="54.3" r="1.02" fill="#6b6b6b" fill-opacity=".566"/><circle cx="37.83" cy="53.6" r="1.2" fill="#838383" fill-opacity=".567"/><circle cx="46.12" cy="14.52" r="1.03" fill="#6c6c6c" fill-opacity=".57"/><circle cx="42.75" cy="52.02" r="1.22" fill="#848484" fill-opacity=".576"/><circle cx="42.43" cy="11.81" r="1.22" fill="#848484" fill-opacity=".576"/><circle cx="33.91" cy="54.69" r="1.22" fill="#858585" fill-opacity=".577"/><circle cx="28.68" cy="54.57" r="1.05" fill="#6e6e6e" fill-opacity=".578"/><circle cx="38.98" cy="53.78" r="1.4" fill="#9c9c9c" fill-opacity=".58"/><circle cx="43.46" cy="52.03" r="1.06" fill="#6f6f6f" fill-opacity=".586"/><circle cx="29.64" cy="55.02" r="1.24" fill="#878787" fill-opacity=".588"/><circle cx="43.69" cy="12.02" r="1.42" fill="#9e9e9e" fill-opacity=".588"/><circle cx="35.1" cy="55" r="1.43" fill="#9e9e9e" fill-opacity=".59"/><circle cx="40.03" cy="53.88" r="1.25" fill="#878787" fill-opacity=".593"/><circle cx="25.08" cy="54.39" r="1.08" fill="#717171" fill-opacity=".597"/><circle cx="30.71" cy="55.44" r="1.45" fill="#9f9f9f" fill-opacity=".598"/><circle cx="44.9" cy="12.32" r="1.27" fill="#898989" fill-opacity=".6"/><circle cx="36.29" cy="55.21" r="1.28" fill="#898989" fill-opacity=".602"/><circle cx="25.76" cy="54.79" r="1.28" fill="#898989" fill-opacity=".603"/><circle cx="40.97" cy="53.9" r="1.1" fill="#737373" fill-opacity=".605"/><circle cx="31.86" cy="55.81" r="1.29" fill="#8b8b8b" fill-opacity=".61"/><circle cx="26.58" cy="55.22" r="1.48" fill="#a2a2a2" fill-opacity=".612"/><circle cx="46.02" cy="12.68" r="1.11" fill="#747474" fill-opacity=".612"/><circle cx="41.56" cy="10.09" r="1.11" fill="#747474" fill-opacity=".614"/><circle cx="37.42" cy="55.33" r="1.12" fill="#757575" fill-opacity=".615"/><circle cx="27.53" cy="55.66" r="1.32" fill="#8d8d8d" fill-opacity=".621"/><circle cx="33.06" cy="56.09" r="1.13" fill="#767676" fill-opacity=".622"/><circle cx="22.41" cy="54.15" r="1.13" fill="#767676" fill-opacity=".624"/><circle cx="42.78" cy="10.35" r="1.33" fill="#8e8e8e" fill-opacity=".626"/><circle cx="22.81" cy="54.42" r="1.33" fill="#8e8e8e" fill-opacity=".628"/><circle cx="28.6" cy="56.07" r="1.15" fill="#787878" fill-opacity=".632"/><circle cx="23.35" cy="54.75" r="1.53" fill="#a6a6a6" fill-opacity=".634"/><circle cx="43.92" cy="10.69" r="1.54" fill="#a7a7a7" fill-opacity=".638"/><circle cx="24.03" cy="55.13" r="1.36" fill="#909090" fill-opacity=".641"/><circle cx="24.85" cy="55.54" r="1.18" fill="#7b7b7b" fill-opacity=".649"/><circle cx="44.95" cy="11.08" r="1.38" fill="#929292" fill-opacity=".649"/><circle cx="45.84" cy="11.49" r="1.2" fill="#7d7d7d" fill-opacity=".66"/><circle cx="20.78" cy="54.06" r="1.2" fill="#7d7d7d" fill-opacity=".661"/><circle cx="20.96" cy="54.18" r="1.41" fill="#959595" fill-opacity=".663"/><circle cx="21.26" cy="54.36" r="1.62" fill="#acacac" fill-opacity=".667"/><circle cx="41.79" cy="9.2" r="1.21" fill="#7f7f7f" fill-opacity=".667"/><circle cx="21.68" cy="54.6" r="1.42" fill="#969696" fill-opacity=".671"/><circle cx="22.24" cy="54.9" r="1.23" fill="#808080" fill-opacity=".678"/><circle cx="42.84" cy="9.58" r="1.44" fill="#989898" fill-opacity=".679"/><circle cx="43.76" cy="10" r="1.67" fill="#b0b0b0" fill-opacity=".689"/><circle cx="44.53" cy="10.41" r="1.48" fill="#9b9b9b" fill-opacity=".698"/><circle cx="45.16" cy="10.8" r="1.28" fill="#868686" fill-opacity=".706"/><circle cx="20.13" cy="53.94" r="1.29" fill="#868686" fill-opacity=".71"/><circle cx="20.15" cy="53.95" r="1.51" fill="#9d9d9d" fill-opacity=".71"/><circle cx="20.24" cy="54" r="1.72" fill="#b5b5b5" fill-opacity=".711"/><circle cx="20.45" cy="54.1" r="1.51" fill="#9e9e9e" fill-opacity=".713"/><circle cx="20.77" cy="54.25" r="1.3" fill="#888" fill-opacity=".717"/><circle cx="41.26" cy="8.86" r="1.3" fill="#888" fill-opacity=".717"/><circle cx="42.07" cy="9.26" r="1.54" fill="#a0a0a0" fill-opacity=".726"/><circle cx="42.74" cy="9.64" r="1.78" fill="#b9b9b9" fill-opacity=".733"/><circle cx="43.27" cy="9.97" r="1.57" fill="#a3a3a3" fill-opacity=".739"/><circle cx="43.66" cy="10.24" r="1.35" fill="#8d8d8d" fill-opacity=".744"/><circle cx="39.64" cy="8.69" r="1.38" fill="#8f8f8f" fill-opacity=".756"/><circle cx="40.22" cy="9" r="1.62" fill="#a7a7a7" fill-opacity=".762"/><circle cx="20.08" cy="53.31" r="1.85" fill="#bebebe" fill-opacity=".762"/><circle cx="20.1" cy="53.32" r="1.62" fill="#a7a7a7" fill-opacity=".762"/><circle cx="20.12" cy="53.33" r="1.62" fill="#a7a7a7" fill-opacity=".763"/><circle cx="20.21" cy="53.36" r="1.39" fill="#909090" fill-opacity=".763"/><circle cx="20.21" cy="53.36" r="1.39" fill="#909090" fill-opacity=".763"/><circle cx="40.65" cy="9.25" r="1.86" fill="#bfbfbf" fill-opacity=".766"/><circle cx="40.96" cy="9.43" r="1.64" fill="#a9a9a9" fill-opacity=".77"/><circle cx="41.14" cy="9.55" r="1.41" fill="#929292" fill-opacity=".772"/><circle cx="36.87" cy="8.51" r="1.43" fill="#949494" fill-opacity=".783"/><circle cx="37.21" cy="8.67" r="1.67" fill="#acacac" fill-opacity=".786"/><circle cx="37.42" cy="8.78" r="1.92" fill="#c3c3c3" fill-opacity=".788"/><circle cx="37.53" cy="8.83" r="1.68" fill="#acacac" fill-opacity=".79"/><circle cx="37.55" cy="8.84" r="1.44" fill="#959595" fill-opacity=".79"/><circle cx="33.15" cy="8.51" r="1.46" fill="#979797" fill-opacity=".8"/><circle cx="33.16" cy="8.51" r="1.46" fill="#979797" fill-opacity=".8"/><circle cx="33.25" cy="8.54" r="1.7" fill="#aeaeae" fill-opacity=".801"/><circle cx="33.27" cy="8.55" r="1.7" fill="#afafaf" fill-opacity=".802"/><circle cx="33.29" cy="8.56" r="1.95" fill="#c6c6c6" fill-opacity=".802"/><circle cx="28.73" cy="8.97" r="1.47" fill="#999" fill-opacity=".809"/><circle cx="28.8" cy="8.98" r="1.72" fill="#b0b0b0" fill-opacity=".809"/><circle cx="28.9" cy="9" r="1.97" fill="#c7c7c7" fill-opacity=".81"/><circle cx="20.17" cy="51.95" r="1.48" fill="#999" fill-opacity=".811"/><circle cx="28.98" cy="9.02" r="1.73" fill="#b0b0b0" fill-opacity=".811"/><circle cx="20.22" cy="51.96" r="1.73" fill="#b0b0b0" fill-opacity=".811"/><circle cx="29.02" cy="9.03" r="1.48" fill="#9a9a9a" fill-opacity=".812"/><circle cx="20.31" cy="51.98" r="1.97" fill="#c7c7c7" fill-opacity=".812"/><circle cx="20.4" cy="52" r="1.73" fill="#b1b1b1" fill-opacity=".813"/><circle cx="20.48" cy="52.01" r="1.48" fill="#9a9a9a" fill-opacity=".814"/><circle cx="25" cy="10.21" r="1.74" fill="#b2b2b2" fill-opacity=".82"/><circle cx="25.02" cy="10.22" r="1.99" fill="#c9c9c9" fill-opacity=".82"/><circle cx="25.05" cy="10.22" r="1.5" fill="#9b9b9b" fill-opacity=".82"/><circle cx="25.09" cy="10.23" r="1.75" fill="#b2b2b2" fill-opacity=".821"/><circle cx="25.18" cy="10.24" r="1.5" fill="#9b9b9b" fill-opacity=".822"/><circle cx="22.05" cy="12.03" r="1.78" fill="#b5b5b5" fill-opacity=".835"/><circle cx="22.08" cy="12.04" r="1.52" fill="#9e9e9e" fill-opacity=".835"/><circle cx="22.09" cy="12.04" r="2.03" fill="#ccc" fill-opacity=".835"/><circle cx="22.23" cy="12.05" r="1.78" fill="#b5b5b5" fill-opacity=".837"/><circle cx="22.47" cy="12.08" r="1.53" fill="#9f9f9f" fill-opacity=".84"/><circle cx="19.76" cy="14.29" r="1.55" fill="#a1a1a1" fill-opacity=".852"/><circle cx="20.18" cy="49.96" r="1.56" fill="#a1a1a1" fill-opacity=".852"/><circle cx="20.28" cy="49.97" r="1.82" fill="#b8b8b8" fill-opacity=".853"/><circle cx="19.88" cy="14.31" r="1.82" fill="#b8b8b8" fill-opacity=".854"/><circle cx="20.33" cy="49.98" r="1.56" fill="#a1a1a1" fill-opacity=".854"/><circle cx="20.36" cy="49.98" r="2.08" fill="#cfcfcf" fill-opacity=".854"/><circle cx="20.39" cy="49.98" r="1.82" fill="#b8b8b8" fill-opacity=".854"/><circle cx="20.11" cy="14.33" r="2.08" fill="#d0d0d0" fill-opacity=".857"/><circle cx="20.47" cy="14.38" r="1.83" fill="#bababa" fill-opacity=".861"/><circle cx="20.96" cy="14.46" r="1.58" fill="#a4a4a4" fill-opacity=".867"/><circle cx="18.05" cy="16.94" r="1.59" fill="#a5a5a5" fill-opacity=".871"/><circle cx="18.39" cy="16.99" r="1.86" fill="#bcbcbc" fill-opacity=".875"/><circle cx="19.42" cy="47.42" r="1.61" fill="#a6a6a6" fill-opacity=".881"/><circle cx="18.86" cy="17.07" r="2.15" fill="#d4d4d4" fill-opacity=".881"/><circle cx="19.71" cy="47.46" r="1.88" fill="#bebebe" fill-opacity=".883"/><circle cx="19.87" cy="47.48" r="2.15" fill="#d5d5d5" fill-opacity=".885"/><circle cx="19.9" cy="47.48" r="1.62" fill="#a7a7a7" fill-opacity=".885"/><circle cx="19.93" cy="47.48" r="1.89" fill="#bebebe" fill-opacity=".885"/><circle cx="16.71" cy="19.91" r="1.62" fill="#a8a8a8" fill-opacity=".887"/><circle cx="19.48" cy="17.19" r="1.89" fill="#bfbfbf" fill-opacity=".889"/><circle cx="17.3" cy="20.03" r="1.91" fill="#c0c0c0" fill-opacity=".895"/><circle cx="17.84" cy="44.4" r="1.64" fill="#a9a9a9" fill-opacity=".897"/><circle cx="20.26" cy="17.36" r="1.64" fill="#aaa" fill-opacity=".898"/><circle cx="15.57" cy="23.13" r="1.64" fill="#aaa" fill-opacity=".899"/><circle cx="18.42" cy="44.5" r="1.92" fill="#c1c1c1" fill-opacity=".902"/><circle cx="16.06" cy="40.97" r="1.65" fill="#ababab" fill-opacity=".904"/><circle cx="18.04" cy="20.19" r="2.2" fill="#d9d9d9" fill-opacity=".904"/><circle cx="14.6" cy="26.5" r="1.65" fill="#ababab" fill-opacity=".905"/><circle cx="18.85" cy="44.57" r="2.2" fill="#d9d9d9" fill-opacity=".905"/><circle cx="14.65" cy="37.3" r="1.65" fill="#ababab" fill-opacity=".906"/><circle cx="13.95" cy="33.6" r="1.65" fill="#ababab" fill-opacity=".906"/><circle cx="13.99" cy="29.99" r="1.66" fill="#ababab" fill-opacity=".906"/><circle cx="19.14" cy="44.61" r="1.93" fill="#c2c2c2" fill-opacity=".908"/><circle cx="19.3" cy="44.63" r="1.66" fill="#acacac" fill-opacity=".909"/><circle cx="16.39" cy="23.32" r="1.94" fill="#c3c3c3" fill-opacity=".91"/><circle cx="16.91" cy="41.17" r="1.94" fill="#c3c3c3" fill-opacity=".912"/><circle cx="18.93" cy="20.41" r="1.95" fill="#c4c4c4" fill-opacity=".914"/><circle cx="15.68" cy="37.58" r="1.95" fill="#c4c4c4" fill-opacity=".917"/><circle cx="15.62" cy="26.77" r="1.95" fill="#c4c4c4" fill-opacity=".917"/><circle cx="17.63" cy="41.31" r="2.24" fill="#dbdbdb" fill-opacity=".918"/><circle cx="15.06" cy="33.92" r="1.96" fill="#c5c5c5" fill-opacity=".919"/><circle cx="15.1" cy="30.3" r="1.96" fill="#c5c5c5" fill-opacity=".92"/><circle cx="17.37" cy="23.57" r="2.24" fill="#dcdcdc" fill-opacity=".921"/><circle cx="18.21" cy="41.42" r="1.97" fill="#c5c5c5" fill-opacity=".923"/><circle cx="19.97" cy="20.69" r="1.69" fill="#afafaf" fill-opacity=".925"/><circle cx="16.65" cy="37.82" r="2.26" fill="#ddd" fill-opacity=".926"/><circle cx="18.64" cy="41.49" r="1.69" fill="#afafaf" fill-opacity=".926"/><circle cx="16.75" cy="27.07" r="2.27" fill="#dedede" fill-opacity=".93"/><circle cx="16.19" cy="34.22" r="2.27" fill="#dedede" fill-opacity=".931"/><circle cx="16.28" cy="30.62" r="2.27" fill="#dedede" fill-opacity=".932"/><circle cx="18.49" cy="23.86" r="1.99" fill="#c7c7c7" fill-opacity=".933"/><circle cx="17.51" cy="38.01" r="1.99" fill="#c7c7c7" fill-opacity=".933"/><circle cx="18.24" cy="38.15" r="1.72" fill="#b1b1b1" fill-opacity=".939"/><circle cx="17.27" cy="34.48" r="2" fill="#c9c9c9" fill-opacity=".94"/><circle cx="17.98" cy="27.4" r="2.01" fill="#c9c9c9" fill-opacity=".942"/><circle cx="19.71" cy="24.21" r="1.72" fill="#b2b2b2" fill-opacity=".944"/><circle cx="17.5" cy="30.94" r="2.01" fill="#c9c9c9" fill-opacity=".944"/><circle cx="18.28" cy="34.71" r="1.73" fill="#b3b3b3" fill-opacity=".948"/><circle cx="19.26" cy="27.74" r="1.74" fill="#b4b4b4" fill-opacity=".953"/><circle cx="18.7" cy="31.24" r="1.74" fill="#b4b4b4" fill-opacity=".954"/></svg>