<svg xmlns="http://www.w3.org/2000/svg" viewBox="0 0 20 20"><circle cx="10" cy="10" r="8.85" fill="none" stroke="#ffb74d" stroke-opacity=".605" stroke-width=".9"/><circle cx="11.46" cy="9.93" r=".36" fill="#4d4d4d" fill-opacity=".405"/><circle cx="11.5" cy="9.93" r=".42" fill="#646464" fill-opacity=".406"/><circle cx="11.52" cy="9.93" r=".36" fill="#4e4e4e" fill-opacity=".406"/><circle cx="11.53" cy="9.93" r=".48" fill="#7b7b7b" fill-opacity=".406"/><circle cx="11.54" cy="9.93" r=".42" fill="#656565" fill-opacity=".406"/><circle cx="11.31" cy="8.81" r=".36" fill="#4e4e4e" fill-opacity=".408"/><circle cx="11.32" cy="8.81" r=".43" fill="#656565" fill-opacity=".408"/><circle cx="11.36" cy="8.81" r=".49" fill="#7c7c7c" fill-opacity=".408"/><circle cx="11.4" cy="8.82" r=".43" fill="#656565" fill-opacity=".408"/><circle cx="11.43" cy="8.82" r=".37" fill="#4e4e4e" fill-opacity=".409"/><circle cx="11.64" cy="11.05" r=".37" fill="#4e4e4e" fill-opacity=".409"/><circle cx="11.75" cy="11.06" r=".43" fill="#656565" fill-opacity=".41"/><circle cx="11.81" cy="11.06" r=".49" fill="#7c7c7c" fill-opacity=".411"/><circle cx="11.81" cy="11.06" r=".37" fill="#4f4f4f" fill-opacity=".411"/><circle cx="11.83" cy="11.07" r=".43" fill="#666" fill-opacity=".411"/><circle cx="11.25" cy="7.72" r=".5" fill="#7e7e7e" fill-opacity=".417"/><circle cx="11.26" cy="7.73" r=".44" fill="#676767" fill-opacity=".417"/><circle cx="11.27" cy="7.73" r=".44" fill="#676767" fill-opacity=".417"/><circle cx="11.3" cy="7.73" r=".37" fill="#505050" fill-opacity=".417"/><circle cx="11.31" cy="7.73" r=".37" fill="#505050" fill-opacity=".417"/><circle cx="11.77" cy="12.15" r=".38" fill="#505050" fill-opacity=".42"/><circle cx="11.99" cy="12.16" r=".44" fill="#686868" fill-opacity=".422"/><circle cx="12.15" cy="12.17" r=".51" fill="#7f7f7f" fill-opacity=".424"/><circle cx="12.25" cy="12.17" r=".44" fill="#686868" fill-opacity=".425"/><circle cx="12.31" cy="12.18" r=".38" fill="#515151" fill-opacity=".426"/><circle cx="11.05" cy="6.68" r=".39" fill="#525252" fill-opacity=".432"/><circle cx="11.06" cy="6.68" r=".45" fill="#696969" fill-opacity=".432"/><circle cx="11.11" cy="6.68" r=".52" fill="#808080" fill-opacity=".432"/><circle cx="11.2" cy="6.69" r=".45" fill="#6a6a6a" fill-opacity=".432"/><circle cx="11.35" cy="6.69" r=".39" fill="#535353" fill-opacity=".433"/><circle cx="11.83" cy="13.2" r=".39" fill="#535353" fill-opacity=".436"/><circle cx="12.16" cy="13.21" r=".46" fill="#6b6b6b" fill-opacity=".439"/><circle cx="12.42" cy="13.21" r=".53" fill="#828282" fill-opacity=".443"/><circle cx="12.62" cy="13.21" r=".47" fill="#6c6c6c" fill-opacity=".446"/><circle cx="12.77" cy="13.21" r=".4" fill="#555" fill-opacity=".448"/><circle cx="10.64" cy="5.71" r=".4" fill="#565656" fill-opacity=".451"/><circle cx="10.73" cy="5.71" r=".47" fill="#6d6d6d" fill-opacity=".451"/><circle cx="10.87" cy="5.71" r=".54" fill="#848484" fill-opacity=".452"/><circle cx="11.08" cy="5.72" r=".47" fill="#6d6d6d" fill-opacity=".453"/><circle cx="11.34" cy="5.73" r=".41" fill="#575757" fill-opacity=".454"/><circle cx="11.68" cy="14.18" r=".41" fill="#575757" fill-opacity=".455"/><circle cx="12.09" cy="14.18" r=".48" fill="#6f6f6f" fill-opacity=".46"/><circle cx="12.45" cy="14.17" r=".56" fill="#868686" fill-opacity=".465"/><circle cx="12.75" cy="14.16" r=".49" fill="#707070" fill-opacity=".469"/><circle cx="12.99" cy="14.14" r=".42" fill="#5a5a5a" fill-opacity=".473"/><circle cx="10.12" cy="4.85" r=".43" fill="#5a5a5a" fill-opacity=".475"/><circle cx="10.31" cy="4.84" r=".5" fill="#727272" fill-opacity=".475"/><circle cx="10.57" cy="4.83" r=".57" fill="#898989" fill-opacity=".476"/><circle cx="11.2" cy="15.07" r=".43" fill="#5b5b5b" fill-opacity=".477"/><circle cx="10.89" cy="4.83" r=".5" fill="#727272" fill-opacity=".478"/><circle cx="11.26" cy="4.84" r=".43" fill="#5c5c5c" fill-opacity=".48"/><circle cx="11.67" cy="15.07" r=".5" fill="#737373" fill-opacity=".481"/><circle cx="12.11" cy="15.06" r=".58" fill="#8b8b8b" fill-opacity=".487"/><circle cx="12.5" cy="15.03" r=".52" fill="#757575" fill-opacity=".492"/><circle cx="12.84" cy="15" r=".45" fill="#5f5f5f" fill-opacity=".497"/><circle cx="10.39" cy="15.82" r=".45" fill="#5f5f5f" fill-opacity=".501"/><circle cx="9.65" cy="4.11" r=".45" fill="#606060" fill-opacity=".504"/><circle cx="9.95" cy="4.09" r=".53" fill="#777" fill-opacity=".504"/><circle cx="10.89" cy="15.85" r=".53" fill="#777" fill-opacity=".505"/><circle cx="10.32" cy="4.06" r=".61" fill="#8e8e8e" fill-opacity=".506"/><circle cx="10.73" cy="4.06" r=".53" fill="#787878" fill-opacity=".508"/><circle cx="11.38" cy="15.86" r=".61" fill="#8f8f8f" fill-opacity=".509"/><circle cx="11.18" cy="4.06" r=".46" fill="#616161" fill-opacity=".511"/><circle cx="11.84" cy="15.85" r=".54" fill="#797979" fill-opacity=".514"/><circle cx="12.27" cy="15.81" r=".47" fill="#636363" fill-opacity=".52"/><circle cx="9.41" cy="16.39" r=".48" fill="#656565" fill-opacity=".529"/><circle cx="9.86" cy="16.46" r=".56" fill="#7c7c7c" fill-opacity=".532"/><circle cx="10.35" cy="16.51" r=".64" fill="#949494" fill-opacity=".535"/><circle cx="9.4" cy="3.49" r=".48" fill="#666" fill-opacity=".537"/><circle cx="9.8" cy="3.44" r=".57" fill="#7d7d7d" fill-opacity=".538"/><circle cx="10.84" cy="16.53" r=".57" fill="#7d7d7d" fill-opacity=".539"/><circle cx="10.24" cy="3.41" r=".65" fill="#959595" fill-opacity=".54"/><circle cx="10.72" cy="3.4" r=".57" fill="#7e7e7e" fill-opacity=".543"/><circle cx="11.33" cy="16.53" r=".49" fill="#676767" fill-opacity=".544"/><circle cx="11.21" cy="3.42" r=".49" fill="#686868" fill-opacity=".546"/><circle cx="8.51" cy="16.77" r=".51" fill="#6b6b6b" fill-opacity=".562"/><circle cx="8.87" cy="16.86" r=".59" fill="#828282" fill-opacity=".564"/><circle cx="9.28" cy="16.94" r=".68" fill="#999" fill-opacity=".566"/><circle cx="9.74" cy="17.01" r=".6" fill="#838383" fill-opacity=".569"/><circle cx="10.22" cy="17.05" r=".52" fill="#6d6d6d" fill-opacity=".572"/><circle cx="9.49" cy="2.94" r=".52" fill="#6d6d6d" fill-opacity=".574"/><circle cx="9.95" cy="2.9" r=".61" fill="#848484" fill-opacity=".576"/><circle cx="10.44" cy="2.88" r=".7" fill="#9c9c9c" fill-opacity=".579"/><circle cx="10.94" cy="2.89" r=".61" fill="#868686" fill-opacity=".582"/><circle cx="11.43" cy="2.92" r=".53" fill="#6f6f6f" fill-opacity=".586"/><circle cx="7.92" cy="17.04" r=".54" fill="#727272" fill-opacity=".598"/><circle cx="8.17" cy="17.12" r=".63" fill="#898989" fill-opacity=".6"/><circle cx="8.47" cy="17.21" r=".72" fill="#a0a0a0" fill-opacity=".601"/><circle cx="8.84" cy="17.29" r=".64" fill="#898989" fill-opacity=".603"/><circle cx="9.26" cy="17.37" r=".55" fill="#737373" fill-opacity=".606"/><circle cx="9.91" cy="2.51" r=".56" fill="#757575" fill-opacity=".616"/><circle cx="10.41" cy="2.5" r=".65" fill="#8d8d8d" fill-opacity=".62"/><circle cx="10.9" cy="2.51" r=".75" fill="#a4a4a4" fill-opacity=".623"/><circle cx="11.36" cy="2.56" r=".66" fill="#8e8e8e" fill-opacity=".627"/><circle cx="11.79" cy="2.62" r=".57" fill="#787878" fill-opacity=".631"/><circle cx="7.75" cy="17.29" r=".58" fill="#797979" fill-opacity=".638"/><circle cx="7.89" cy="17.34" r=".67" fill="#909090" fill-opacity=".639"/><circle cx="8.09" cy="17.4" r=".77" fill="#a7a7a7" fill-opacity=".64"/><circle cx="8.35" cy="17.47" r=".68" fill="#919191" fill-opacity=".642"/><circle cx="8.67" cy="17.55" r=".58" fill="#7a7a7a" fill-opacity=".644"/><circle cx="10.55" cy="2.28" r=".6" fill="#7e7e7e" fill-opacity=".663"/><circle cx="11.02" cy="2.31" r=".7" fill="#959595" fill-opacity=".667"/><circle cx="11.45" cy="2.37" r=".81" fill="#adadad" fill-opacity=".67"/><circle cx="11.83" cy="2.45" r=".71" fill="#979797" fill-opacity=".674"/><circle cx="12.16" cy="2.53" r=".61" fill="#808080" fill-opacity=".677"/><circle cx="7.99" cy="17.52" r=".62" fill="#818181" fill-opacity=".682"/><circle cx="8.04" cy="17.54" r=".72" fill="#989898" fill-opacity=".682"/><circle cx="8.15" cy="17.56" r=".82" fill="#afafaf" fill-opacity=".683"/><circle cx="8.3" cy="17.6" r=".72" fill="#999" fill-opacity=".684"/><circle cx="8.51" cy="17.65" r=".62" fill="#828282" fill-opacity=".686"/><circle cx="11.13" cy="2.29" r=".64" fill="#878787" fill-opacity=".711"/><circle cx="11.52" cy="2.36" r=".75" fill="#9e9e9e" fill-opacity=".714"/><circle cx="11.85" cy="2.44" r=".87" fill="#b6b6b6" fill-opacity=".717"/><circle cx="12.13" cy="2.51" r=".76" fill="#9f9f9f" fill-opacity=".719"/><circle cx="12.34" cy="2.58" r=".65" fill="#888" fill-opacity=".721"/><circle cx="8.53" cy="17.62" r=".77" fill="#a1a1a1" fill-opacity=".729"/><circle cx="8.54" cy="17.62" r=".66" fill="#8a8a8a" fill-opacity=".729"/><circle cx="8.55" cy="17.63" r=".88" fill="#b8b8b8" fill-opacity=".73"/><circle cx="8.61" cy="17.64" r=".77" fill="#a1a1a1" fill-opacity=".73"/><circle cx="8.72" cy="17.65" r=".66" fill="#8a8a8a" fill-opacity=".731"/><circle cx="11.41" cy="2.47" r=".69" fill="#8f8f8f" fill-opacity=".756"/><circle cx="11.69" cy="2.54" r=".8" fill="#a6a6a6" fill-opacity=".758"/><circle cx="11.91" cy="2.6" r=".92" fill="#bebebe" fill-opacity=".76"/><circle cx="12.08" cy="2.65" r=".8" fill="#a7a7a7" fill-opacity=".761"/><circle cx="12.19" cy="2.69" r=".69" fill="#909090" fill-opacity=".762"/><circle cx="9.09" cy="17.49" r=".82" fill="#aaa" fill-opacity=".777"/><circle cx="9.1" cy="17.49" r=".94" fill="#c1c1c1" fill-opacity=".777"/><circle cx="9.11" cy="17.49" r=".7" fill="#939393" fill-opacity=".777"/><circle cx="9.13" cy="17.49" r=".82" fill="#aaa" fill-opacity=".777"/><circle cx="9.17" cy="17.49" r=".7" fill="#939393" fill-opacity=".777"/><circle cx="11.23" cy="2.72" r=".72" fill="#979797" fill-opacity=".797"/><circle cx="11.41" cy="2.76" r=".84" fill="#aeaeae" fill-opacity=".798"/><circle cx="11.53" cy="2.79" r=".97" fill="#c5c5c5" fill-opacity=".799"/><circle cx="11.6" cy="2.81" r=".85" fill="#aeaeae" fill-opacity=".799"/><circle cx="11.63" cy="2.82" r=".73" fill="#979797" fill-opacity=".799"/><circle cx="9.49" cy="17.12" r=".74" fill="#9b9b9b" fill-opacity=".821"/><circle cx="9.52" cy="17.12" r=".87" fill="#b2b2b2" fill-opacity=".821"/><circle cx="9.56" cy="17.12" r=".99" fill="#c9c9c9" fill-opacity=".821"/><circle cx="9.59" cy="17.12" r=".87" fill="#b2b2b2" fill-opacity=".821"/><circle cx="9.61" cy="17.12" r=".75" fill="#9b9b9b" fill-opacity=".821"/><circle cx="10.61" cy="3.04" r=".76" fill="#9e9e9e" fill-opacity=".833"/><circle cx="10.69" cy="3.05" r=".88" fill="#b5b5b5" fill-opacity=".834"/><circle cx="10.69" cy="3.05" r=".76" fill="#9e9e9e" fill-opacity=".834"/><circle cx="10.72" cy="3.06" r=".88" fill="#b5b5b5" fill-opacity=".834"/><circle cx="10.72" cy="3.06" r="1.01" fill="#ccc" fill-opacity=".834"/><circle cx="9.7" cy="16.59" r=".78" fill="#a2a2a2" fill-opacity=".86"/><circle cx="9.7" cy="16.59" r=".78" fill="#a2a2a2" fill-opacity=".86"/><circle cx="9.74" cy="16.59" r=".91" fill="#b9b9b9" fill-opacity=".86"/><circle cx="9.75" cy="16.59" r=".91" fill="#b9b9b9" fill-opacity=".86"/><circle cx="9.76" cy="16.59" r="1.04" fill="#d0d0d0" fill-opacity=".86"/><circle cx="9.58" cy="3.49" r=".78" fill="#a3a3a3" fill-opacity=".864"/><circle cx="9.62" cy="3.49" r=".92" fill="#bababa" fill-opacity=".865"/><circle cx="9.65" cy="3.49" r="1.05" fill="#d1d1d1" fill-opacity=".865"/><circle cx="9.68" cy="3.5" r=".92" fill="#bababa" fill-opacity=".865"/><circle cx="9.68" cy="3.5" r=".79" fill="#a3a3a3" fill-opacity=".865"/><circle cx="8.6" cy="4.14" r=".81" fill="#a8a8a8" fill-opacity=".89"/><circle cx="8.6" cy="4.14" r=".94" fill="#bfbfbf" fill-opacity=".89"/><circle cx="8.62" cy="4.14" r="1.08" fill="#d6d6d6" fill-opacity=".891"/><circle cx="8.66" cy="4.14" r=".94" fill="#bfbfbf" fill-opacity=".891"/><circle cx="8.7" cy="4.14" r=".81" fill="#a8a8a8" fill-opacity=".891"/><circle cx="9.45" cy="15.94" r=".81" fill="#a9a9a9" fill-opacity=".893"/><circle cx="9.59" cy="15.94" r=".95" fill="#c0c0c0" fill-opacity=".894"/><circle cx="9.68" cy="15.94" r="1.08" fill="#d7d7d7" fill-opacity=".894"/><circle cx="9.73" cy="15.93" r=".95" fill="#c0c0c0" fill-opacity=".894"/><circle cx="9.74" cy="15.93" r=".81" fill="#a9a9a9" fill-opacity=".894"/><circle cx="7.89" cy="4.94" r="1.11" fill="#dadada" fill-opacity=".913"/><circle cx="7.89" cy="4.94" r=".97" fill="#c3c3c3" fill-opacity=".913"/><circle cx="7.91" cy="4.94" r=".83" fill="#adadad" fill-opacity=".914"/><circle cx="7.92" cy="4.94" r=".97" fill="#c4c4c4" fill-opacity=".914"/><circle cx="7.99" cy="4.94" r=".83" fill="#adadad" fill-opacity=".915"/><circle cx="8.97" cy="15.17" r=".84" fill="#aeaeae" fill-opacity=".921"/><circle cx="9.23" cy="15.17" r=".98" fill="#c5c5c5" fill-opacity=".923"/><circle cx="9.43" cy="15.17" r="1.12" fill="#dcdcdc" fill-opacity=".924"/><circle cx="9.57" cy="15.16" r=".98" fill="#c5c5c5" fill-opacity=".924"/><circle cx="9.66" cy="15.16" r=".84" fill="#afafaf" fill-opacity=".925"/><circle cx="7.45" cy="5.83" r=".85" fill="#b0b0b0" fill-opacity=".934"/><circle cx="7.48" cy="5.83" r=".99" fill="#c7c7c7" fill-opacity=".934"/><circle cx="7.55" cy="5.83" r="1.13" fill="#dfdfdf" fill-opacity=".935"/><circle cx="7.67" cy="5.82" r=".99" fill="#c8c8c8" fill-opacity=".937"/><circle cx="7.85" cy="5.82" r=".85" fill="#b1b1b1" fill-opacity=".939"/><circle cx="8.44" cy="14.26" r=".86" fill="#b2b2b2" fill-opacity=".944"/><circle cx="8.81" cy="14.28" r="1" fill="#cacaca" fill-opacity=".947"/><circle cx="9.13" cy="14.29" r="1.15" fill="#e1e1e1" fill-opacity=".948"/><circle cx="9.38" cy="14.29" r="1.01" fill="#cacaca" fill-opacity=".949"/><circle cx="9.58" cy="14.29" r=".86" fill="#b3b3b3" fill-opacity=".95"/><circle cx="7.3" cy="6.79" r=".87" fill="#b4b4b4" fill-opacity=".953"/><circle cx="7.41" cy="6.79" r="1.01" fill="#cbcbcb" fill-opacity=".955"/><circle cx="7.58" cy="6.79" r="1.16" fill="#e3e3e3" fill-opacity=".957"/><circle cx="7.81" cy="6.79" r="1.02" fill="#ccc" fill-opacity=".96"/><circle cx="8.03" cy="13.27" r=".87" fill="#b6b6b6" fill-opacity=".962"/><circle cx="8.1" cy="6.79" r=".88" fill="#b6b6b6" fill-opacity=".964"/><circle cx="8.48" cy="13.3" r="1.02" fill="#cdcdcd" fill-opacity=".966"/><circle cx="8.89" cy="13.32" r="1.17" fill="#e5e5e5" fill-opacity=".968"/><circle cx="7.35" cy="7.82" r=".88" fill="#b7b7b7" fill-opacity=".969"/><circle cx="9.26" cy="13.33" r="1.03" fill="#cecece" fill-opacity=".97"/><circle cx="9.57" cy="13.33" r=".88" fill="#b7b7b7" fill-opacity=".971"/><circle cx="7.57" cy="7.82" r="1.03" fill="#cfcfcf" fill-opacity=".972"/><circle cx="7.79" cy="12.21" r=".89" fill="#b8b8b8" fill-opacity=".975"/><circle cx="7.85" cy="7.83" r="1.18" fill="#e6e6e6" fill-opacity=".976"/><circle cx="8.27" cy="12.25" r="1.04" fill="#d0d0d0" fill-opacity=".979"/><circle cx="8.19" cy="7.84" r="1.04" fill="#d0d0d0" fill-opacity=".98"/><circle cx="7.47" cy="8.9" r=".89" fill="#b9b9b9" fill-opacity=".981"/><circle cx="8.75" cy="12.28" r="1.19" fill="#e7e7e7" fill-opacity=".983"/><circle cx="7.67" cy="11.12" r=".89" fill="#bababa" fill-opacity=".983"/><circle cx="8.59" cy="7.87" r=".89" fill="#bababa" fill-opacity=".983"/><circle cx="7.8" cy="8.91" r="1.05" fill="#d1d1d1" fill-opacity=".985"/><circle cx="9.2" cy="12.29" r="1.05" fill="#d1d1d1" fill-opacity=".985"/><circle cx="7.58" cy="10.01" r=".9" fill="#bababa" fill-opacity=".985"/><circle cx="9.61" cy="12.3" r=".9" fill="#bababa" fill-opacity=".986"/><circle cx="8.14" cy="11.15" r="1.05" fill="#d1d1d1" fill-opacity=".988"/><circle cx="8.19" cy="8.94" r="1.2" fill="#e9e9e9" fill-opacity=".989"/><circle cx="8.01" cy="10.04" r="1.05" fill="#d2d2d2" fill-opacity=".99"/><circle cx="8.64" cy="11.19" r="1.2" fill="#e9e9e9" fill-opacity=".992"/><circle cx="8.63" cy="8.96" r="1.05" fill="#d2d2d2" fill-opacity=".993"/><circle cx="8.47" cy="10.07" r="1.21" fill="#eaeaea" fill-opacity=".994"/><circle cx="9.14" cy="11.21" r="1.06" fill="#d3d3d3" fill-opacity=".994"/><circle cx="9.1" cy="8.99" r=".91" fill="#bcbcbc" fill-opacity=".995"/><circle cx="9.61" cy="11.23" r=".91" fill="#bcbcbc" fill-opacity=".996"/><circle cx="8.96" cy="10.1" r="1.06" fill="#d3d3d3" fill-opacity=".997"/><circle cx="9.46" cy="10.13" r=".91" fill="#bdbdbd" fill-opacity=".999"/></svg>