<svg xmlns="http://www.w3.org/2000/svg" viewBox="0 0 64 64"><circle cx="22.03" cy="31.68" r=".81" fill="#646464" fill-opacity=".393"/><circle cx="34.97" cy="21.15" r=".84" fill="#666" fill-opacity=".405"/><circle cx="41.33" cy="38.35" r="1.01" fill="#777" fill-opacity=".482"/><circle cx="17.47" cy="45.19" r="1.03" fill="#797979" fill-opacity=".495"/><circle cx="31.36" cy="51.67" r="1.18" fill="#888" fill-opacity=".56"/><circle cx="52.81" cy="30.79" r="1.21" fill="#8b8b8b" fill-opacity=".577"/><circle cx="15.93" cy="18.13" r=".88" fill="#6a6a6a" fill-opacity=".424"/><circle cx="45.01" cy="14.32" r="1.08" fill="#7e7e7e" fill-opacity=".517"/><circle cx="46.62" cy="49.26" r="1.37" fill="#9b9b9b" fill-opacity=".65"/><circle cx="28.66" cy="9.02" r="1" fill="#767676" fill-opacity=".478"/><circle cx="8.24" cy="31.26" r="1.06" fill="#7c7c7c" fill-opacity=".505"/><circle cx="24.89" cy="55.19" r="1.48" fill="#a5a5a5" fill-opacity=".699"/><circle cx="55.25" cy="25.59" r="1.51" fill="#a8a8a8" fill-opacity=".712"/><circle cx="11.74" cy="45.02" r="1.35" fill="#989898" fill-opacity=".639"/><circle cx="52.89" cy="43.43" r="1.65" fill="#b6b6b6" fill-opacity=".779"/><circle cx="38.61" cy="9.31" r="1.33" fill="#969696" fill-opacity=".63"/><circle cx="13.2" cy="18.55" r="1.25" fill="#8f8f8f" fill-opacity=".596"/><circle cx="37.03" cy="52.44" r="1.75" fill="#c0c0c0" fill-opacity=".825"/><circle cx="46.14" cy="19" r="1.63" fill="#b4b4b4" fill-opacity=".77"/><circle cx="13.89" cy="32.37" r="1.53" fill="#aaa" fill-opacity=".723"/><circle cx="26.2" cy="15.36" r="1.51" fill="#a8a8a8" fill-opacity=".712"/><circle cx="46.08" cy="37.65" r="1.85" fill="#cacaca" fill-opacity=".868"/><circle cx="25" cy="44.36" r="1.76" fill="#c1c1c1" fill-opacity=".83"/><circle cx="33.11" cy="28.69" r="1.79" fill="#c4c4c4" fill-opacity=".845"/></svg>