<svg xmlns="http://www.w3.org/2000/svg" viewBox="0 0 64 64"><circle cx="32" cy="31.5" r="1.42" fill="#a5a5a5"/><circle cx="41.19" cy="32.14" r="1.43" fill="#a5a5a5"/><circle cx="22.81" cy="32.14" r="1.43" fill="#a5a5a5"/><circle cx="28.89" cy="42.92" r="1.5" fill="#a9a9a9"/><circle cx="38.16" cy="43.2" r="1.5" fill="#a9a9a9"/><circle cx="29.08" cy="20.93" r="1.24" fill="#9c9c9c"/><circle cx="37.81" cy="21.11" r="1.24" fill="#9c9c9c"/><circle cx="20.24" cy="44.27" r="1.5" fill="#a9a9a9"/><circle cx="20.64" cy="21.83" r="1.24" fill="#9c9c9c"/><circle cx="49.28" cy="34" r="1.43" fill="#a6a6a6"/><circle cx="14.72" cy="34" r="1.43" fill="#a6a6a6"/><circle cx="46.2" cy="45.05" r="1.51" fill="#aaa"/><circle cx="45.97" cy="22.36" r="1.24" fill="#9c9c9c"/><circle cx="29.1" cy="52.51" r="1.47" fill="#a8a8a8"/><circle cx="37.61" cy="52.96" r="1.47" fill="#a8a8a8"/><circle cx="13.31" cy="23.73" r="1.24" fill="#9c9c9c"/><circle cx="32" cy="12.98" r="1.25" fill="#9c9c9c"/><circle cx="13.92" cy="46.99" r="1.51" fill="#aaa"/><circle cx="52.76" cy="24.55" r="1.25" fill="#9d9d9d"/><circle cx="40.36" cy="13.56" r="1.25" fill="#9d9d9d"/><circle cx="23.64" cy="13.56" r="1.25" fill="#9d9d9d"/><circle cx="55.28" cy="36.85" r="1.44" fill="#a6a6a6"/><circle cx="8.72" cy="36.85" r="1.44" fill="#a6a6a6"/><circle cx="22.29" cy="54.6" r="1.48" fill="#a8a8a8"/><circle cx="51.44" cy="48.11" r="1.51" fill="#aaa"/><circle cx="42.83" cy="55.68" r="1.48" fill="#a9a9a9"/><circle cx="16.29" cy="15.25" r="1.25" fill="#9d9d9d"/><circle cx="47.71" cy="15.25" r="1.25" fill="#9d9d9d"/><circle cx="7.81" cy="26.43" r="1.25" fill="#9d9d9d"/><circle cx="32" cy="58.43" r="1.4" fill="#a4a4a4"/><circle cx="57.52" cy="27.47" r="1.25" fill="#9d9d9d"/><circle cx="11.18" cy="50.53" r="1.52" fill="#ababab"/><circle cx="29.33" cy="8.49" r="1.25" fill="#9d9d9d"/><circle cx="58.47" cy="40.35" r="1.45" fill="#a7a7a7"/><circle cx="5.53" cy="40.35" r="1.45" fill="#a7a7a7"/><circle cx="37.28" cy="8.73" r="1.25" fill="#9d9d9d"/><circle cx="21.17" cy="57.99" r="1.48" fill="#a9a9a9"/><circle cx="53.16" cy="17.85" r="1.26" fill="#9d9d9d"/><circle cx="10.84" cy="17.85" r="1.26" fill="#9d9d9d"/><circle cx="52.82" cy="51.77" r="1.52" fill="#ababab"/><circle cx="21.9" cy="9.65" r="1.26" fill="#9e9e9e"/><circle cx="41.71" cy="59.07" r="1.49" fill="#a9a9a9"/><circle cx="4.68" cy="29.69" r="1.26" fill="#9e9e9e"/><circle cx="44.19" cy="10.32" r="1.26" fill="#9e9e9e"/><circle cx="59.78" cy="30.84" r="1.26" fill="#9e9e9e"/><circle cx="26.39" cy="60.7" r="1.49" fill="#aaa"/><circle cx="12.56" cy="54.19" r="1.53" fill="#acacac"/><circle cx="16.47" cy="11.98" r="1.26" fill="#9e9e9e"/><circle cx="34.9" cy="61.15" r="1.49" fill="#aaa"/><circle cx="58.47" cy="44.07" r="1.46" fill="#a8a8a8"/><circle cx="5.53" cy="44.07" r="1.46" fill="#a8a8a8"/><circle cx="56.07" cy="21.03" r="1.26" fill="#9e9e9e"/><circle cx="7.93" cy="21.03" r="1.26" fill="#9e9e9e"/><circle cx="29.5" cy="6.88" r="1.26" fill="#9e9e9e"/><circle cx="48.69" cy="12.95" r="1.26" fill="#9e9e9e"/><circle cx="50.08" cy="55.31" r="1.53" fill="#acacac"/><circle cx="36.83" cy="7.27" r="1.26" fill="#9e9e9e"/><circle cx="4.22" cy="33.16" r="1.27" fill="#9e9e9e"/><circle cx="23.63" cy="8.68" r="1.27" fill="#9f9f9f"/><circle cx="59.32" cy="34.31" r="1.27" fill="#9f9f9f"/><circle cx="17.8" cy="57.25" r="1.54" fill="#acacac"/><circle cx="14.12" cy="15.02" r="1.27" fill="#9f9f9f"/><circle cx="41.34" cy="9.6" r="1.27" fill="#9f9f9f"/><circle cx="43.76" cy="58.03" r="1.54" fill="#acacac"/><circle cx="55.28" cy="47.57" r="1.46" fill="#a9a9a9"/><circle cx="8.72" cy="47.57" r="1.46" fill="#a9a9a9"/><circle cx="56.07" cy="24.41" r="1.27" fill="#9f9f9f"/><circle cx="7.93" cy="24.41" r="1.27" fill="#9f9f9f"/><circle cx="49.88" cy="16.09" r="1.27" fill="#9f9f9f"/><circle cx="25.84" cy="59.11" r="1.54" fill="#adadad"/><circle cx="6.48" cy="36.53" r="1.27" fill="#9f9f9f"/><circle cx="32" cy="7.88" r="1.27" fill="#9f9f9f"/><circle cx="35.11" cy="59.38" r="1.54" fill="#adadad"/><circle cx="22.66" cy="11.6" r="1.27" fill="#9f9f9f"/><circle cx="56.19" cy="37.57" r="1.27" fill="#9f9f9f"/><circle cx="15.31" cy="18.17" r="1.27" fill="#9f9f9f"/><circle cx="40.37" cy="12.53" r="1.28" fill="#9f9f9f"/><circle cx="49.28" cy="50.42" r="1.47" fill="#a9a9a9"/><circle cx="14.72" cy="50.42" r="1.47" fill="#a9a9a9"/><circle cx="53.16" cy="27.59" r="1.28" fill="#9f9f9f"/><circle cx="10.84" cy="27.59" r="1.28" fill="#9f9f9f"/><circle cx="47.53" cy="19.13" r="1.28" fill="#a0a0a0"/><circle cx="27.17" cy="13.94" r="1.28" fill="#a0a0a0"/><circle cx="11.24" cy="39.45" r="1.28" fill="#a0a0a0"/><circle cx="34.5" cy="14.32" r="1.28" fill="#a0a0a0"/><circle cx="41.19" cy="52.28" r="1.48" fill="#aaa"/><circle cx="22.81" cy="52.28" r="1.48" fill="#aaa"/><circle cx="50.69" cy="40.27" r="1.28" fill="#a0a0a0"/><circle cx="19.81" cy="20.8" r="1.28" fill="#a0a0a0"/><circle cx="32" cy="52.93" r="1.48" fill="#aaa"/><circle cx="42.1" cy="21.46" r="1.28" fill="#a0a0a0"/><circle cx="47.71" cy="30.18" r="1.28" fill="#a0a0a0"/><circle cx="16.29" cy="30.18" r="1.28" fill="#a0a0a0"/><circle cx="18.03" cy="41.64" r="1.28" fill="#a0a0a0"/><circle cx="26.72" cy="22.39" r="1.28" fill="#a0a0a0"/><circle cx="43.36" cy="42.17" r="1.28" fill="#a0a0a0"/><circle cx="34.67" cy="22.62" r="1.28" fill="#a0a0a0"/><circle cx="26.19" cy="42.89" r="1.29" fill="#a0a0a0"/><circle cx="40.36" cy="31.87" r="1.29" fill="#a0a0a0"/><circle cx="23.64" cy="31.87" r="1.29" fill="#a0a0a0"/><circle cx="34.92" cy="43.07" r="1.29" fill="#a0a0a0"/><circle cx="32" cy="32.46" r="1.29" fill="#a1a1a1"/></svg>