<svg xmlns="http://www.w3.org/2000/svg" viewBox="0 0 20 20"><circle cx="10" cy="10" r="8.7" fill="none" stroke="#ffb74d" stroke-opacity=".507" stroke-width=".9"/><circle cx="9.15" cy="10.65" r=".59" fill="#979797"/><circle cx="11.96" cy="10.71" r=".6" fill="#979797"/><circle cx="9.08" cy="7.26" r=".59" fill="#979797"/><circle cx="11.82" cy="7.3" r=".59" fill="#979797"/><circle cx="6.45" cy="10.89" r=".6" fill="#989898"/><circle cx="9.35" cy="13.97" r=".61" fill="#999"/><circle cx="6.44" cy="7.48" r=".6" fill="#989898"/><circle cx="12.11" cy="14.08" r=".62" fill="#9a9a9a"/><circle cx="14.53" cy="11.07" r=".6" fill="#989898"/><circle cx="14.38" cy="7.61" r=".6" fill="#989898"/><circle cx="6.72" cy="14.25" r=".62" fill="#9a9a9a"/><circle cx="9.16" cy="4.33" r=".6" fill="#989898"/><circle cx="4.17" cy="11.41" r=".61" fill="#999"/><circle cx="11.94" cy="4.39" r=".6" fill="#989898"/><circle cx="4.14" cy="7.95" r=".6" fill="#999"/><circle cx="14.45" cy="14.55" r=".62" fill="#9b9b9b"/><circle cx="9.64" cy="16.81" r=".67" fill="#a0a0a0"/><circle cx="6.48" cy="4.57" r=".6" fill="#999"/><circle cx="16.56" cy="11.69" r=".61" fill="#9a9a9a"/><circle cx="16.51" cy="8.15" r=".61" fill="#999"/><circle cx="14.49" cy="4.75" r=".6" fill="#999"/><circle cx="4.74" cy="14.87" r=".63" fill="#9c9c9c"/><circle cx="12.17" cy="17.05" r=".67" fill="#a0a0a0"/><circle cx="7.32" cy="17.21" r=".67" fill="#a1a1a1"/><circle cx="4.22" cy="5.09" r=".61" fill="#9a9a9a"/><circle cx="2.6" cy="12.15" r=".62" fill="#9b9b9b"/><circle cx="2.41" cy="8.62" r=".61" fill="#9b9b9b"/><circle cx="15.91" cy="15.29" r=".63" fill="#9d9d9d"/><circle cx="9.37" cy="2.4" r=".61" fill="#9b9b9b"/><circle cx="12.03" cy="2.5" r=".61" fill="#9b9b9b"/><circle cx="16.5" cy="5.36" r=".61" fill="#9b9b9b"/><circle cx="18" cy="8.88" r=".62" fill="#9c9c9c"/><circle cx="17.79" cy="12.48" r=".62" fill="#9c9c9c"/><circle cx="6.84" cy="2.67" r=".61" fill="#9b9b9b"/><circle cx="13.42" cy="17.78" r=".68" fill="#a2a2a2"/><circle cx="10" cy="18.74" r=".74" fill="#a8a8a8"/><circle cx="3.8" cy="15.69" r=".64" fill="#9e9e9e"/><circle cx="6.58" cy="18" r=".69" fill="#a3a3a3"/><circle cx="14.29" cy="2.96" r=".62" fill="#9c9c9c"/><circle cx="2.66" cy="5.81" r=".62" fill="#9c9c9c"/><circle cx="1.43" cy="9.43" r=".63" fill="#9d9d9d"/><circle cx="1.92" cy="13.01" r=".63" fill="#9e9e9e"/><circle cx="16.2" cy="16.16" r=".65" fill="#9f9f9f"/><circle cx="4.93" cy="3.27" r=".62" fill="#9d9d9d"/><circle cx="17.72" cy="6.14" r=".62" fill="#9d9d9d"/><circle cx="18.71" cy="9.71" r=".63" fill="#9e9e9e"/><circle cx="9.67" cy="1.76" r=".63" fill="#9e9e9e"/><circle cx="12.68" cy="18.57" r=".7" fill="#a5a5a5"/><circle cx="18.08" cy="13.36" r=".63" fill="#9f9f9f"/><circle cx="7.83" cy="18.73" r=".7" fill="#a5a5a5"/><circle cx="4.09" cy="16.56" r=".65" fill="#a1a1a1"/><circle cx="15.7" cy="3.67" r=".63" fill="#9e9e9e"/><circle cx="11.99" cy="1.97" r=".63" fill="#9e9e9e"/><circle cx="7.54" cy="2.12" r=".63" fill="#9f9f9f"/><circle cx="1.99" cy="6.67" r=".63" fill="#9f9f9f"/><circle cx="10.36" cy="18.97" r=".7" fill="#a6a6a6"/><circle cx="1.29" cy="10.29" r=".64" fill="#a0a0a0"/><circle cx="2.21" cy="13.89" r=".64" fill="#a0a0a0"/><circle cx="4.02" cy="4.06" r=".63" fill="#9f9f9f"/><circle cx="15.26" cy="16.99" r=".66" fill="#a2a2a2"/><circle cx="18.01" cy="7.02" r=".64" fill="#a0a0a0"/><circle cx="18.57" cy="10.57" r=".64" fill="#a0a0a0"/><circle cx="17.4" cy="14.22" r=".65" fill="#a1a1a1"/><circle cx="13.15" cy="2.64" r=".64" fill="#a0a0a0"/><circle cx="5.55" cy="17.31" r=".66" fill="#a3a3a3"/><circle cx="10" cy="2.29" r=".64" fill="#a0a0a0"/><circle cx="15.98" cy="4.51" r=".64" fill="#a1a1a1"/><circle cx="6.85" cy="2.85" r=".64" fill="#a1a1a1"/><circle cx="13.28" cy="17.6" r=".67" fill="#a4a4a4"/><circle cx="2.28" cy="7.54" r=".64" fill="#a1a1a1"/><circle cx="2" cy="11.12" r=".65" fill="#a2a2a2"/><circle cx="3.44" cy="14.69" r=".65" fill="#a2a2a2"/><circle cx="7.89" cy="17.78" r=".67" fill="#a4a4a4"/><circle cx="4.3" cy="4.9" r=".65" fill="#a2a2a2"/><circle cx="10.65" cy="17.88" r=".67" fill="#a4a4a4"/><circle cx="17.34" cy="7.87" r=".65" fill="#a2a2a2"/><circle cx="17.59" cy="11.38" r=".65" fill="#a3a3a3"/><circle cx="15.83" cy="14.96" r=".66" fill="#a3a3a3"/><circle cx="12.46" cy="3.37" r=".65" fill="#a2a2a2"/><circle cx="8.01" cy="3.52" r=".65" fill="#a3a3a3"/><circle cx="15.07" cy="5.31" r=".65" fill="#a3a3a3"/><circle cx="5.47" cy="15.3" r=".66" fill="#a4a4a4"/><circle cx="10.33" cy="3.74" r=".65" fill="#a3a3a3"/><circle cx="3.5" cy="8.33" r=".65" fill="#a3a3a3"/><circle cx="3.49" cy="11.85" r=".66" fill="#a4a4a4"/><circle cx="13.55" cy="15.48" r=".67" fill="#a4a4a4"/><circle cx="5.71" cy="5.62" r=".66" fill="#a4a4a4"/><circle cx="15.86" cy="12.05" r=".66" fill="#a4a4a4"/><circle cx="15.78" cy="8.6" r=".66" fill="#a4a4a4"/><circle cx="8.04" cy="15.66" r=".67" fill="#a5a5a5"/><circle cx="10.85" cy="15.72" r=".67" fill="#a5a5a5"/><circle cx="13.16" cy="5.9" r=".66" fill="#a4a4a4"/><circle cx="5.62" cy="12.39" r=".67" fill="#a5a5a5"/><circle cx="7.97" cy="6.07" r=".66" fill="#a5a5a5"/><circle cx="5.51" cy="8.94" r=".66" fill="#a5a5a5"/><circle cx="10.63" cy="6.17" r=".66" fill="#a5a5a5"/><circle cx="13.56" cy="12.52" r=".67" fill="#a6a6a6"/><circle cx="13.52" cy="9.12" r=".67" fill="#a5a5a5"/><circle cx="8.18" cy="12.7" r=".67" fill="#a6a6a6"/><circle cx="10.92" cy="12.74" r=".67" fill="#a6a6a6"/><circle cx="8.06" cy="9.3" r=".67" fill="#a6a6a6"/><circle cx="10.84" cy="9.36" r=".67" fill="#a6a6a6"/></svg>