<svg xmlns="http://www.w3.org/2000/svg" viewBox="0 0 64 64"><circle cx="32" cy="33.17" r="1.24" fill="#9c9c9c"/><circle cx="23.3" cy="33.7" r="1.24" fill="#9c9c9c"/><circle cx="40.7" cy="33.7" r="1.24" fill="#9c9c9c"/><circle cx="34.91" cy="22.52" r="1.24" fill="#9c9c9c"/><circle cx="26.22" cy="22.67" r="1.24" fill="#9c9c9c"/><circle cx="34.9" cy="43.68" r="1.24" fill="#9c9c9c"/><circle cx="26.27" cy="43.9" r="1.24" fill="#9c9c9c"/><circle cx="43.31" cy="23.29" r="1.24" fill="#9c9c9c"/><circle cx="18.1" cy="23.74" r="1.24" fill="#9c9c9c"/><circle cx="15.66" cy="35.21" r="1.24" fill="#9c9c9c"/><circle cx="48.34" cy="35.21" r="1.24" fill="#9c9c9c"/><circle cx="42.96" cy="44.76" r="1.24" fill="#9c9c9c"/><circle cx="32" cy="12.7" r="1.34" fill="#a1a1a1"/><circle cx="18.77" cy="45.39" r="1.24" fill="#9c9c9c"/><circle cx="22.98" cy="13.24" r="1.34" fill="#a1a1a1"/><circle cx="41.02" cy="13.24" r="1.34" fill="#a1a1a1"/><circle cx="50.61" cy="24.91" r="1.24" fill="#9c9c9c"/><circle cx="34.72" cy="52.35" r="1.25" fill="#9c9c9c"/><circle cx="11.34" cy="25.62" r="1.25" fill="#9d9d9d"/><circle cx="26.75" cy="52.7" r="1.25" fill="#9d9d9d"/><circle cx="48.85" cy="46.94" r="1.25" fill="#9d9d9d"/><circle cx="9.98" cy="37.53" r="1.25" fill="#9d9d9d"/><circle cx="54.02" cy="37.53" r="1.25" fill="#9d9d9d"/><circle cx="15.05" cy="14.81" r="1.35" fill="#a2a2a2"/><circle cx="48.95" cy="14.81" r="1.35" fill="#a2a2a2"/><circle cx="41.1" cy="54.02" r="1.25" fill="#9d9d9d"/><circle cx="13.89" cy="47.84" r="1.25" fill="#9d9d9d"/><circle cx="56.08" cy="27.23" r="1.25" fill="#9d9d9d"/><circle cx="35.11" cy="5.33" r="1.51" fill="#aaa"/><circle cx="25.85" cy="5.56" r="1.51" fill="#aaa"/><circle cx="21.85" cy="54.89" r="1.25" fill="#9d9d9d"/><circle cx="6.6" cy="28.12" r="1.25" fill="#9d9d9d"/><circle cx="32" cy="57.47" r="1.25" fill="#9d9d9d"/><circle cx="43.75" cy="6.49" r="1.52" fill="#ababab"/><circle cx="9.16" cy="17.22" r="1.35" fill="#a2a2a2"/><circle cx="54.84" cy="17.22" r="1.35" fill="#a2a2a2"/><circle cx="51.4" cy="49.78" r="1.25" fill="#9d9d9d"/><circle cx="6.96" cy="40.38" r="1.26" fill="#9d9d9d"/><circle cx="57.04" cy="40.38" r="1.26" fill="#9d9d9d"/><circle cx="17.81" cy="7.16" r="1.52" fill="#ababab"/><circle cx="42.15" cy="56.76" r="1.26" fill="#9e9e9e"/><circle cx="59.2" cy="30.02" r="1.26" fill="#9e9e9e"/><circle cx="12.6" cy="50.78" r="1.26" fill="#9e9e9e"/><circle cx="22.9" cy="57.63" r="1.26" fill="#9e9e9e"/><circle cx="4.35" cy="31" r="1.26" fill="#9e9e9e"/><circle cx="50.07" cy="8.82" r="1.52" fill="#ababab"/><circle cx="34.99" cy="1.99" r="1.64" fill="#b1b1b1"/><circle cx="6.03" cy="20.17" r="1.36" fill="#a3a3a3"/><circle cx="57.97" cy="20.17" r="1.36" fill="#a3a3a3"/><circle cx="37.25" cy="58.94" r="1.26" fill="#9e9e9e"/><circle cx="12.58" cy="9.79" r="1.53" fill="#ababab"/><circle cx="50.11" cy="52.71" r="1.26" fill="#9e9e9e"/><circle cx="26.23" cy="2.38" r="1.64" fill="#b1b1b1"/><circle cx="6.96" cy="43.41" r="1.26" fill="#9e9e9e"/><circle cx="57.04" cy="43.41" r="1.26" fill="#9e9e9e"/><circle cx="29.28" cy="59.3" r="1.26" fill="#9e9e9e"/><circle cx="15.15" cy="53.61" r="1.26" fill="#9e9e9e"/><circle cx="59.65" cy="33" r="1.27" fill="#9e9e9e"/><circle cx="42" cy="3.83" r="1.65" fill="#b2b2b2"/><circle cx="4.8" cy="33.98" r="1.27" fill="#9f9f9f"/><circle cx="52.81" cy="11.87" r="1.53" fill="#acacac"/><circle cx="45.23" cy="55.17" r="1.27" fill="#9f9f9f"/><circle cx="20.85" cy="4.79" r="1.65" fill="#b2b2b2"/><circle cx="6.03" cy="23.31" r="1.37" fill="#a4a4a4"/><circle cx="57.97" cy="23.31" r="1.37" fill="#a4a4a4"/><circle cx="9.98" cy="46.25" r="1.27" fill="#9f9f9f"/><circle cx="54.02" cy="46.25" r="1.27" fill="#9f9f9f"/><circle cx="21.04" cy="55.79" r="1.27" fill="#9f9f9f"/><circle cx="11.19" cy="12.94" r="1.54" fill="#acacac"/><circle cx="32" cy="3.8" r="1.63" fill="#b1b1b1"/><circle cx="57.4" cy="35.88" r="1.27" fill="#9f9f9f"/><circle cx="37.73" cy="56.65" r="1.27" fill="#9f9f9f"/><circle cx="29.1" cy="56.87" r="1.27" fill="#9f9f9f"/><circle cx="43.15" cy="6.84" r="1.66" fill="#b2b2b2"/><circle cx="7.92" cy="36.77" r="1.27" fill="#9f9f9f"/><circle cx="51.42" cy="15.01" r="1.54" fill="#adadad"/><circle cx="48.34" cy="48.57" r="1.28" fill="#9f9f9f"/><circle cx="15.66" cy="48.57" r="1.28" fill="#9f9f9f"/><circle cx="22" cy="7.79" r="1.66" fill="#b3b3b3"/><circle cx="9.16" cy="26.26" r="1.38" fill="#a5a5a5"/><circle cx="54.84" cy="26.26" r="1.38" fill="#a5a5a5"/><circle cx="13.93" cy="15.98" r="1.55" fill="#adadad"/><circle cx="52.66" cy="38.38" r="1.28" fill="#a0a0a0"/><circle cx="40.7" cy="50.08" r="1.28" fill="#a0a0a0"/><circle cx="23.3" cy="50.08" r="1.28" fill="#a0a0a0"/><circle cx="37.77" cy="9.24" r="1.67" fill="#b3b3b3"/><circle cx="13.39" cy="39.09" r="1.28" fill="#a0a0a0"/><circle cx="29.01" cy="9.64" r="1.67" fill="#b3b3b3"/><circle cx="32" cy="50.61" r="1.28" fill="#a0a0a0"/><circle cx="46.19" cy="17.65" r="1.55" fill="#adadad"/><circle cx="45.9" cy="40.26" r="1.28" fill="#a0a0a0"/><circle cx="48.95" cy="28.67" r="1.38" fill="#a5a5a5"/><circle cx="15.05" cy="28.67" r="1.38" fill="#a5a5a5"/><circle cx="20.25" cy="18.31" r="1.55" fill="#aeaeae"/><circle cx="20.69" cy="40.71" r="1.29" fill="#a0a0a0"/><circle cx="37.78" cy="41.33" r="1.29" fill="#a0a0a0"/><circle cx="38.15" cy="19.24" r="1.56" fill="#aeaeae"/><circle cx="29.09" cy="41.48" r="1.29" fill="#a0a0a0"/><circle cx="28.89" cy="19.48" r="1.56" fill="#aeaeae"/><circle cx="41.02" cy="30.24" r="1.39" fill="#a6a6a6"/><circle cx="22.98" cy="30.24" r="1.39" fill="#a6a6a6"/><circle cx="32" cy="30.78" r="1.39" fill="#a6a6a6"/></svg>