<svg xmlns="http://www.w3.org/2000/svg" viewBox="0 0 64 64"><circle cx="30.25" cy="32.54" r="1.24" fill="#9c9c9c"/><circle cx="38.9" cy="32.87" r="1.24" fill="#9c9c9c"/><circle cx="21.83" cy="33.3" r="1.24" fill="#9c9c9c"/><circle cx="29.7" cy="42.97" r="1.24" fill="#9c9c9c"/><circle cx="34.8" cy="22.28" r="1.24" fill="#9c9c9c"/><circle cx="26.44" cy="22.44" r="1.24" fill="#9c9c9c"/><circle cx="38.24" cy="43.3" r="1.24" fill="#9c9c9c"/><circle cx="42.89" cy="23.07" r="1.24" fill="#9c9c9c"/><circle cx="46.7" cy="34.26" r="1.24" fill="#9c9c9c"/><circle cx="21.61" cy="44.03" r="1.24" fill="#9c9c9c"/><circle cx="18.62" cy="23.54" r="1.24" fill="#9c9c9c"/><circle cx="14.62" cy="35.08" r="1.24" fill="#9c9c9c"/><circle cx="45.55" cy="44.95" r="1.24" fill="#9c9c9c"/><circle cx="30.28" cy="13.46" r="1.24" fill="#9c9c9c"/><circle cx="33.09" cy="51.66" r="1.24" fill="#9c9c9c"/><circle cx="49.91" cy="24.74" r="1.24" fill="#9c9c9c"/><circle cx="38.81" cy="13.79" r="1.25" fill="#9c9c9c"/><circle cx="21.95" cy="14.22" r="1.25" fill="#9d9d9d"/><circle cx="52.74" cy="36.54" r="1.25" fill="#9d9d9d"/><circle cx="25.43" cy="52.49" r="1.25" fill="#9d9d9d"/><circle cx="12.11" cy="25.46" r="1.25" fill="#9d9d9d"/><circle cx="15.58" cy="46.27" r="1.25" fill="#9d9d9d"/><circle cx="40.11" cy="53.06" r="1.25" fill="#9d9d9d"/><circle cx="46.53" cy="15.17" r="1.25" fill="#9d9d9d"/><circle cx="9.52" cy="37.64" r="1.25" fill="#9d9d9d"/><circle cx="50.17" cy="47.59" r="1.25" fill="#9d9d9d"/><circle cx="14.83" cy="15.97" r="1.25" fill="#9d9d9d"/><circle cx="55.18" cy="27.11" r="1.25" fill="#9d9d9d"/><circle cx="29.69" cy="6.96" r="1.25" fill="#9d9d9d"/><circle cx="21.62" cy="55.06" r="1.25" fill="#9d9d9d"/><circle cx="7.55" cy="28.03" r="1.25" fill="#9d9d9d"/><circle cx="38.26" cy="7.29" r="1.25" fill="#9d9d9d"/><circle cx="32" cy="57.3" r="1.25" fill="#9d9d9d"/><circle cx="56.27" cy="39.44" r="1.25" fill="#9d9d9d"/><circle cx="52.49" cy="17.42" r="1.25" fill="#9d9d9d"/><circle cx="12.8" cy="49.23" r="1.25" fill="#9d9d9d"/><circle cx="42.38" cy="55.85" r="1.25" fill="#9d9d9d"/><circle cx="21.58" cy="8.02" r="1.25" fill="#9d9d9d"/><circle cx="9.78" cy="18.51" r="1.26" fill="#9e9e9e"/><circle cx="7.12" cy="40.69" r="1.26" fill="#9e9e9e"/><circle cx="45.59" cy="8.94" r="1.26" fill="#9e9e9e"/><circle cx="58.18" cy="29.97" r="1.26" fill="#9e9e9e"/><circle cx="51.2" cy="50.71" r="1.26" fill="#9e9e9e"/><circle cx="23.89" cy="57.85" r="1.26" fill="#9e9e9e"/><circle cx="5.38" cy="30.98" r="1.26" fill="#9e9e9e"/><circle cx="15.53" cy="10.26" r="1.26" fill="#9e9e9e"/><circle cx="55.99" cy="20.28" r="1.26" fill="#9e9e9e"/><circle cx="38.57" cy="58.41" r="1.26" fill="#9e9e9e"/><circle cx="56.88" cy="42.6" r="1.26" fill="#9e9e9e"/><circle cx="13.83" cy="52.35" r="1.26" fill="#9e9e9e"/><circle cx="33.14" cy="3.44" r="1.37" fill="#a3a3a3"/><circle cx="30.91" cy="59.24" r="1.26" fill="#9e9e9e"/><circle cx="50.23" cy="11.59" r="1.26" fill="#9e9e9e"/><circle cx="7.41" cy="21.52" r="1.26" fill="#9e9e9e"/><circle cx="25.12" cy="4.31" r="1.37" fill="#a4a4a4"/><circle cx="7.73" cy="43.86" r="1.26" fill="#9e9e9e"/><circle cx="48.42" cy="53.67" r="1.26" fill="#9e9e9e"/><circle cx="58.62" cy="33.02" r="1.26" fill="#9e9e9e"/><circle cx="40.5" cy="4.9" r="1.37" fill="#a4a4a4"/><circle cx="5.82" cy="34.03" r="1.27" fill="#9f9f9f"/><circle cx="12.75" cy="13.24" r="1.27" fill="#9f9f9f"/><circle cx="18.45" cy="54.99" r="1.27" fill="#9f9f9f"/><circle cx="56.59" cy="23.41" r="1.27" fill="#9f9f9f"/><circle cx="54.48" cy="45.65" r="1.27" fill="#9f9f9f"/><circle cx="42.39" cy="55.91" r="1.27" fill="#9f9f9f"/><circle cx="21.12" cy="7" r="1.38" fill="#a4a4a4"/><circle cx="51.25" cy="14.72" r="1.27" fill="#9f9f9f"/><circle cx="11.26" cy="46.75" r="1.27" fill="#9f9f9f"/><circle cx="8.01" cy="24.65" r="1.27" fill="#9f9f9f"/><circle cx="25.76" cy="56.64" r="1.27" fill="#9f9f9f"/><circle cx="56.45" cy="35.97" r="1.27" fill="#9f9f9f"/><circle cx="42.88" cy="7.83" r="1.38" fill="#a4a4a4"/><circle cx="34.3" cy="56.97" r="1.27" fill="#9f9f9f"/><circle cx="32" cy="4.16" r="1.61" fill="#b0b0b0"/><circle cx="8.82" cy="36.89" r="1.27" fill="#9f9f9f"/><circle cx="49.38" cy="48.22" r="1.27" fill="#9f9f9f"/><circle cx="13.77" cy="16.36" r="1.27" fill="#9f9f9f"/><circle cx="54.22" cy="26.42" r="1.28" fill="#9f9f9f"/><circle cx="17.3" cy="49.04" r="1.28" fill="#9f9f9f"/><circle cx="23.5" cy="9.93" r="1.39" fill="#a5a5a5"/><circle cx="48.47" cy="17.69" r="1.28" fill="#a0a0a0"/><circle cx="11.51" cy="27.51" r="1.28" fill="#a0a0a0"/><circle cx="51.89" cy="38.54" r="1.28" fill="#a0a0a0"/><circle cx="42.17" cy="49.99" r="1.28" fill="#a0a0a0"/><circle cx="38.88" cy="10.52" r="1.39" fill="#a5a5a5"/><circle cx="14.09" cy="39.26" r="1.28" fill="#a0a0a0"/><circle cx="25.1" cy="50.43" r="1.28" fill="#a0a0a0"/><circle cx="33.75" cy="50.76" r="1.28" fill="#a0a0a0"/><circle cx="30.86" cy="11.38" r="1.39" fill="#a5a5a5"/><circle cx="18.41" cy="19.01" r="1.28" fill="#a0a0a0"/><circle cx="49.17" cy="28.96" r="1.28" fill="#a0a0a0"/><circle cx="45.38" cy="40.46" r="1.28" fill="#a0a0a0"/><circle cx="42.42" cy="19.93" r="1.28" fill="#a0a0a0"/><circle cx="17.47" cy="29.77" r="1.28" fill="#a0a0a0"/><circle cx="21.11" cy="40.93" r="1.28" fill="#a0a0a0"/><circle cx="25.74" cy="20.67" r="1.29" fill="#a0a0a0"/><circle cx="37.56" cy="41.56" r="1.29" fill="#a0a0a0"/><circle cx="42.05" cy="30.71" r="1.29" fill="#a0a0a0"/><circle cx="29.2" cy="41.72" r="1.29" fill="#a0a0a0"/><circle cx="34.31" cy="20.99" r="1.29" fill="#a0a0a0"/><circle cx="25.19" cy="31.14" r="1.29" fill="#a0a0a0"/><circle cx="33.72" cy="31.47" r="1.29" fill="#a1a1a1"/></svg>