<svg xmlns="http://www.w3.org/2000/svg" viewBox="0 0 64 64"><circle cx="31.58" cy="32.97" r="1.5" fill="#bfbfbf"/><circle cx="39.89" cy="33.43" r="1.5" fill="#bfbfbf"/><circle cx="23.31" cy="33.53" r="1.5" fill="#bfbfbf"/><circle cx="32.74" cy="22.87" r="1.42" fill="#b5b5b5"/><circle cx="29.03" cy="43.02" r="1.42" fill="#b4b4b4"/><circle cx="24.6" cy="23.24" r="1.42" fill="#b5b5b5"/><circle cx="40.81" cy="23.4" r="1.42" fill="#b5b5b5"/><circle cx="37.27" cy="43.2" r="1.42" fill="#b4b4b4"/><circle cx="47.26" cy="34.85" r="1.5" fill="#c0c0c0"/><circle cx="21.38" cy="44.1" r="1.42" fill="#b5b5b5"/><circle cx="16.09" cy="35.04" r="1.5" fill="#c0c0c0"/><circle cx="17.19" cy="24.46" r="1.42" fill="#b5b5b5"/><circle cx="48.02" cy="24.76" r="1.43" fill="#b5b5b5"/><circle cx="44.47" cy="44.61" r="1.42" fill="#b5b5b5"/><circle cx="29.08" cy="14.21" r="1.25" fill="#9d9d9d"/><circle cx="37.48" cy="14.37" r="1.25" fill="#9d9d9d"/><circle cx="35.81" cy="51.49" r="1.25" fill="#9e9e9e"/><circle cx="28.13" cy="51.5" r="1.25" fill="#9e9e9e"/><circle cx="21.02" cy="15.06" r="1.25" fill="#9d9d9d"/><circle cx="45.23" cy="15.51" r="1.25" fill="#9d9d9d"/><circle cx="52.78" cy="37.07" r="1.51" fill="#c0c0c0"/><circle cx="11.22" cy="26.42" r="1.43" fill="#b6b6b6"/><circle cx="15.83" cy="46.23" r="1.43" fill="#b5b5b5"/><circle cx="10.8" cy="37.32" r="1.51" fill="#c0c0c0"/><circle cx="53.66" cy="26.84" r="1.43" fill="#b6b6b6"/><circle cx="49.2" cy="46.97" r="1.43" fill="#b5b5b5"/><circle cx="41.26" cy="53.38" r="1.26" fill="#9e9e9e"/><circle cx="14.29" cy="16.82" r="1.25" fill="#9e9e9e"/><circle cx="22.71" cy="53.4" r="1.26" fill="#9e9e9e"/><circle cx="33.27" cy="8.16" r="1.44" fill="#b7b7b7"/><circle cx="51.38" cy="17.52" r="1.26" fill="#9e9e9e"/><circle cx="25.12" cy="8.61" r="1.44" fill="#b7b7b7"/><circle cx="32" cy="56.6" r="1.45" fill="#b8b8b8"/><circle cx="41.18" cy="8.99" r="1.44" fill="#b7b7b7"/><circle cx="7.28" cy="28.93" r="1.44" fill="#b6b6b6"/><circle cx="55.8" cy="39.8" r="1.52" fill="#c1c1c1"/><circle cx="13.48" cy="48.98" r="1.43" fill="#b6b6b6"/><circle cx="8.06" cy="40.09" r="1.52" fill="#c1c1c1"/><circle cx="57.18" cy="29.42" r="1.44" fill="#b6b6b6"/><circle cx="9.7" cy="19.28" r="1.26" fill="#9e9e9e"/><circle cx="50.52" cy="49.8" r="1.44" fill="#b6b6b6"/><circle cx="18.32" cy="10.24" r="1.45" fill="#b8b8b8"/><circle cx="41.29" cy="56.05" r="1.27" fill="#9f9f9f"/><circle cx="22.74" cy="56.08" r="1.27" fill="#9f9f9f"/><circle cx="47.27" cy="10.93" r="1.45" fill="#b8b8b8"/><circle cx="55.19" cy="20.13" r="1.26" fill="#9f9f9f"/><circle cx="5.77" cy="31.74" r="1.45" fill="#b7b7b7"/><circle cx="28.41" cy="6.01" r="1.52" fill="#c2c2c2"/><circle cx="36.09" cy="6.08" r="1.52" fill="#c2c2c2"/><circle cx="55.94" cy="42.73" r="1.52" fill="#c2c2c2"/><circle cx="14.8" cy="51.82" r="1.44" fill="#b7b7b7"/><circle cx="35.87" cy="57.95" r="1.27" fill="#9f9f9f"/><circle cx="28.19" cy="57.96" r="1.27" fill="#9f9f9f"/><circle cx="58.23" cy="32.26" r="1.45" fill="#b7b7b7"/><circle cx="8.2" cy="43.02" r="1.52" fill="#c2c2c2"/><circle cx="14.24" cy="12.74" r="1.46" fill="#b8b8b8"/><circle cx="48.17" cy="52.56" r="1.45" fill="#b7b7b7"/><circle cx="7.79" cy="22.13" r="1.27" fill="#9f9f9f"/><circle cx="50.33" cy="13.6" r="1.46" fill="#b9b9b9"/><circle cx="22.83" cy="7.85" r="1.53" fill="#c2c2c2"/><circle cx="56.21" cy="23.04" r="1.27" fill="#9f9f9f"/><circle cx="41.38" cy="8.02" r="1.53" fill="#c2c2c2"/><circle cx="19.53" cy="54.18" r="1.45" fill="#b7b7b7"/><circle cx="6.82" cy="34.58" r="1.45" fill="#b8b8b8"/><circle cx="53.2" cy="45.51" r="1.53" fill="#c3c3c3"/><circle cx="42.62" cy="54.69" r="1.45" fill="#b8b8b8"/><circle cx="11.22" cy="45.76" r="1.53" fill="#c3c3c3"/><circle cx="56.72" cy="35.07" r="1.45" fill="#b8b8b8"/><circle cx="32" cy="7.4" r="1.44" fill="#b7b7b7"/><circle cx="13.67" cy="15.61" r="1.46" fill="#b9b9b9"/><circle cx="8.81" cy="25.04" r="1.28" fill="#a0a0a0"/><circle cx="26.73" cy="55.59" r="1.45" fill="#b8b8b8"/><circle cx="34.97" cy="55.77" r="1.45" fill="#b8b8b8"/><circle cx="49.76" cy="16.47" r="1.47" fill="#b9b9b9"/><circle cx="22.62" cy="10.52" r="1.54" fill="#c3c3c3"/><circle cx="41.17" cy="10.7" r="1.54" fill="#c3c3c3"/><circle cx="54.3" cy="25.89" r="1.28" fill="#a0a0a0"/><circle cx="47.91" cy="47.78" r="1.54" fill="#c3c3c3"/><circle cx="10.34" cy="37.16" r="1.46" fill="#b9b9b9"/><circle cx="16.74" cy="47.97" r="1.54" fill="#c3c3c3"/><circle cx="52.78" cy="37.58" r="1.46" fill="#b9b9b9"/><circle cx="16.73" cy="18.28" r="1.47" fill="#bababa"/><circle cx="27.91" cy="12.47" r="1.54" fill="#c4c4c4"/><circle cx="12.62" cy="27.66" r="1.29" fill="#a1a1a1"/><circle cx="35.59" cy="12.54" r="1.54" fill="#c4c4c4"/><circle cx="40.69" cy="49.29" r="1.54" fill="#c4c4c4"/><circle cx="24.11" cy="49.39" r="1.54" fill="#c4c4c4"/><circle cx="45.68" cy="18.97" r="1.47" fill="#bababa"/><circle cx="49.71" cy="28.35" r="1.29" fill="#a1a1a1"/><circle cx="32.42" cy="49.85" r="1.54" fill="#c4c4c4"/><circle cx="15.98" cy="39.24" r="1.47" fill="#b9b9b9"/><circle cx="46.81" cy="39.54" r="1.47" fill="#b9b9b9"/><circle cx="22.82" cy="20.22" r="1.48" fill="#bababa"/><circle cx="18.77" cy="29.66" r="1.29" fill="#a1a1a1"/><circle cx="38.88" cy="20.6" r="1.48" fill="#bbb"/><circle cx="23.19" cy="40.6" r="1.47" fill="#bababa"/><circle cx="39.4" cy="40.76" r="1.47" fill="#bababa"/><circle cx="42.98" cy="30.11" r="1.29" fill="#a1a1a1"/><circle cx="30.73" cy="21.05" r="1.48" fill="#bbb"/><circle cx="31.26" cy="41.13" r="1.47" fill="#bababa"/><circle cx="26.52" cy="30.81" r="1.3" fill="#a1a1a1"/><circle cx="34.92" cy="30.96" r="1.3" fill="#a2a2a2"/></svg>