<svg xmlns="http://www.w3.org/2000/svg" viewBox="0 0 20 20"><circle cx="10" cy="10" r="8.53" fill="none" stroke="#ffb74d" stroke-opacity=".401" stroke-width=".9"/><circle cx="11.86" cy="10.17" r=".5" fill="#707070" fill-opacity=".437"/><circle cx="10.02" cy="9.95" r=".3" fill="#383838" fill-opacity=".1"/><circle cx="11.84" cy="6.61" r=".54" fill="#767676" fill-opacity=".464"/><circle cx="6.63" cy="9.17" r=".56" fill="#787878" fill-opacity=".477"/><circle cx="11.36" cy="14.32" r=".56" fill="#797979" fill-opacity=".479"/><circle cx="7.34" cy="12.8" r=".57" fill="#7a7a7a" fill-opacity=".484"/><circle cx="7.44" cy="6.95" r=".3" fill="#383838" fill-opacity=".116"/><circle cx="11.85" cy="13.68" r=".3" fill="#383838" fill-opacity=".118"/><circle cx="6.62" cy="12.43" r=".3" fill="#383838" fill-opacity=".118"/><circle cx="14.1" cy="8.3" r=".3" fill="#383838" fill-opacity=".121"/><circle cx="11.52" cy="5.12" r=".3" fill="#383838" fill-opacity=".129"/><circle cx="6.65" cy="6" r=".62" fill="#828282" fill-opacity=".522"/><circle cx="15.41" cy="12.03" r=".3" fill="#383838" fill-opacity=".139"/><circle cx="15.56" cy="12.17" r=".66" fill="#878787" fill-opacity=".548"/><circle cx="11.43" cy="3.56" r=".66" fill="#888" fill-opacity=".551"/><circle cx="4.04" cy="9.59" r=".3" fill="#383838" fill-opacity=".142"/><circle cx="16.2" cy="8.73" r=".68" fill="#8b8b8b" fill-opacity=".564"/><circle cx="12.76" cy="16.04" r=".71" fill="#8f8f8f" fill-opacity=".584"/><circle cx="9.63" cy="16.57" r=".3" fill="#383838" fill-opacity=".155"/><circle cx="6.02" cy="15.37" r=".3" fill="#383838" fill-opacity=".158"/><circle cx="4.26" cy="12.31" r=".74" fill="#929292" fill-opacity=".602"/><circle cx="5.93" cy="4.55" r=".3" fill="#383838" fill-opacity=".161"/><circle cx="7.19" cy="15.68" r=".75" fill="#959595" fill-opacity=".612"/><circle cx="15.55" cy="5.56" r=".75" fill="#959595" fill-opacity=".614"/><circle cx="13.6" cy="15.98" r=".3" fill="#383838" fill-opacity=".166"/><circle cx="7.54" cy="3.33" r=".77" fill="#979797" fill-opacity=".624"/><circle cx="3.52" cy="9.26" r=".77" fill="#989898" fill-opacity=".627"/><circle cx="16.7" cy="7.36" r=".3" fill="#383838" fill-opacity=".175"/><circle cx="14.05" cy="4.03" r=".3" fill="#383838" fill-opacity=".175"/><circle cx="9.43" cy="2.79" r=".3" fill="#383838" fill-opacity=".176"/><circle cx="3.05" cy="12.68" r=".3" fill="#383838" fill-opacity=".188"/><circle cx="3.07" cy="7.25" r=".3" fill="#383838" fill-opacity=".189"/><circle cx="4.13" cy="6.38" r=".84" fill="#a1a1a1" fill-opacity=".673"/><circle cx="17.44" cy="11.15" r=".3" fill="#383838" fill-opacity=".195"/><circle cx="15.62" cy="14.2" r=".87" fill="#a6a6a6" fill-opacity=".694"/><circle cx="5.34" cy="15.63" r=".89" fill="#a9a9a9" fill-opacity=".711"/><circle cx="12.97" cy="2.83" r=".9" fill="#aaa" fill-opacity=".717"/><circle cx="16.97" cy="11.21" r=".91" fill="#adadad" fill-opacity=".728"/><circle cx="15.84" cy="14.86" r=".3" fill="#383838" fill-opacity=".212"/><circle cx="8.51" cy="17.44" r=".3" fill="#383838" fill-opacity=".215"/><circle cx="6.82" cy="3.74" r=".94" fill="#b1b1b1" fill-opacity=".747"/><circle cx="16.78" cy="8.19" r=".96" fill="#b3b3b3" fill-opacity=".758"/><circle cx="4.91" cy="15.55" r=".3" fill="#383838" fill-opacity=".225"/><circle cx="3.3" cy="12.73" r=".97" fill="#b5b5b5" fill-opacity=".768"/><circle cx="10.32" cy="17.93" r=".97" fill="#b5b5b5" fill-opacity=".769"/><circle cx="8.5" cy="2.67" r=".3" fill="#383838" fill-opacity=".23"/><circle cx="12.89" cy="3.12" r=".3" fill="#383838" fill-opacity=".231"/><circle cx="13.44" cy="16.24" r=".99" fill="#b8b8b8" fill-opacity=".783"/><circle cx="14.87" cy="5.14" r="1" fill="#b9b9b9" fill-opacity=".786"/><circle cx="4.66" cy="4.91" r=".3" fill="#383838" fill-opacity=".236"/><circle cx="2.66" cy="10.38" r=".3" fill="#383838" fill-opacity=".238"/><circle cx="16.52" cy="6.63" r=".3" fill="#383838" fill-opacity=".238"/><circle cx="3.03" cy="9.67" r="1.03" fill="#bebebe" fill-opacity=".809"/><circle cx="11.86" cy="16.88" r=".3" fill="#383838" fill-opacity=".248"/><circle cx="4.28" cy="6.47" r="1.06" fill="#c3c3c3" fill-opacity=".833"/><circle cx="16.71" cy="10.47" r=".3" fill="#383838" fill-opacity=".261"/><circle cx="6.38" cy="16.2" r="1.1" fill="#c8c8c8" fill-opacity=".856"/><circle cx="15.01" cy="13.57" r="1.11" fill="#cacaca" fill-opacity=".867"/><circle cx="14.81" cy="14.04" r=".3" fill="#383838" fill-opacity=".272"/><circle cx="4.99" cy="13.32" r=".3" fill="#383838" fill-opacity=".277"/><circle cx="4.43" cy="7.9" r=".3" fill="#383838" fill-opacity=".278"/><circle cx="13.76" cy="5.39" r=".3" fill="#383838" fill-opacity=".278"/><circle cx="7.84" cy="4.61" r=".3" fill="#383838" fill-opacity=".281"/><circle cx="15.27" cy="10.52" r="1.17" fill="#d2d2d2" fill-opacity=".906"/><circle cx="14.38" cy="7.16" r="1.17" fill="#d2d2d2" fill-opacity=".908"/><circle cx="8.83" cy="15.54" r=".3" fill="#383838" fill-opacity=".283"/><circle cx="10.74" cy="15.59" r="1.2" fill="#d7d7d7" fill-opacity=".932"/><circle cx="10.55" cy="4.46" r="1.2" fill="#d7d7d7" fill-opacity=".933"/><circle cx="5.6" cy="13.19" r="1.21" fill="#d9d9d9" fill-opacity=".94"/><circle cx="7.05" cy="5.79" r="1.23" fill="#dbdbdb" fill-opacity=".95"/><circle cx="13.56" cy="9.35" r=".3" fill="#383838" fill-opacity=".307"/><circle cx="5.8" cy="9.74" r="1.26" fill="#e0e0e0" fill-opacity=".974"/><circle cx="11.3" cy="12.78" r=".3" fill="#383838" fill-opacity=".311"/><circle cx="7.13" cy="10.7" r=".3" fill="#383838" fill-opacity=".311"/><circle cx="9.73" cy="7.39" r=".3" fill="#383838" fill-opacity=".313"/><circle cx="10.93" cy="12.45" r="1.3" fill="#e5e5e5" fill-opacity=".999"/><circle cx="10.93" cy="8.82" r="1.31" fill="#e7e7e7" fill-opacity="1.01"/></svg>