<svg xmlns="http://www.w3.org/2000/svg" viewBox="0 0 20 20"><circle cx="10" cy="10" r="8.5" fill="none" stroke="#ffb74d" stroke-opacity=".381" stroke-width=".9"/><circle cx="9.15" cy="6.79" r=".39" fill="#474747" fill-opacity=".215"/><circle cx="13.43" cy="8.66" r=".39" fill="#474747" fill-opacity=".219"/><circle cx="12.8" cy="7.25" r=".39" fill="#474747" fill-opacity=".221"/><circle cx="14.47" cy="11.65" r=".39" fill="#474747" fill-opacity=".232"/><circle cx="5.63" cy="6.15" r=".65" fill="#bdbdbd"/><circle cx="10.06" cy="3.9" r=".39" fill="#474747" fill-opacity=".259"/><circle cx="5.2" cy="6.15" r=".39" fill="#474747" fill-opacity=".263"/><circle cx="9.67" cy="3.61" r=".67" fill="#bfbfbf"/><circle cx="16.39" cy="11.04" r=".39" fill="#474747" fill-opacity=".273"/><circle cx="14.44" cy="15.42" r=".39" fill="#474747" fill-opacity=".289"/><circle cx="14.21" cy="15.96" r=".76" fill="#c6c6c6"/><circle cx="16.97" cy="12.06" r=".77" fill="#c7c7c7"/><circle cx="12.53" cy="8.02" r=".39" fill="#474747" fill-opacity=".269"/><circle cx="13.41" cy="10.18" r=".39" fill="#474747" fill-opacity=".283"/><circle cx="10.68" cy="6.62" r=".39" fill="#474747" fill-opacity=".286"/><circle cx="13.43" cy="10.75" r=".73" fill="#c4c4c4"/><circle cx="7.29" cy="2.88" r=".39" fill="#474747" fill-opacity=".332"/><circle cx="12.99" cy="12.27" r=".39" fill="#474747" fill-opacity=".323"/><circle cx="8.57" cy="6.51" r=".39" fill="#474747" fill-opacity=".327"/><circle cx="8.43" cy="6.56" r=".82" fill="#cbcbcb"/><circle cx="3.09" cy="6.97" r=".39" fill="#474747" fill-opacity=".344"/><circle cx="16.91" cy="13.03" r=".39" fill="#474747" fill-opacity=".356"/><circle cx="11.43" cy="13.49" r=".39" fill="#474747" fill-opacity=".373"/><circle cx="7.01" cy="7.73" r=".39" fill="#474747" fill-opacity=".377"/><circle cx="12.71" cy="17.12" r=".39" fill="#474747" fill-opacity=".368"/><circle cx="9.32" cy="13.38" r=".39" fill="#474747" fill-opacity=".414"/><circle cx="6.59" cy="9.82" r=".39" fill="#474747" fill-opacity=".417"/><circle cx="8.14" cy="12.69" r="1.05" fill="#ddd"/><circle cx="7.47" cy="11.98" r=".39" fill="#474747" fill-opacity=".431"/><circle cx="5.56" cy="4.58" r=".39" fill="#474747" fill-opacity=".411"/><circle cx="3.61" cy="8.96" r=".39" fill="#474747" fill-opacity=".427"/><circle cx="14.8" cy="13.85" r=".39" fill="#474747" fill-opacity=".437"/><circle cx="9.94" cy="16.1" r=".39" fill="#474747" fill-opacity=".441"/><circle cx="5.53" cy="8.35" r=".39" fill="#474747" fill-opacity=".468"/><circle cx="7.2" cy="12.75" r=".39" fill="#474747" fill-opacity=".479"/><circle cx="6.57" cy="11.34" r=".39" fill="#474747" fill-opacity=".481"/><circle cx="6.12" cy="10.42" r="1.16" fill="#e7e7e7"/><circle cx="10.85" cy="13.21" r=".39" fill="#474747" fill-opacity=".485"/><circle cx="7.4" cy="11.8" r="1.18" fill="#e8e8e8"/></svg>